<svg width="15" height="30" viewBox="0 0 15 30" fill="none" xmlns="http://www.w3.org/2000/svg">
<path d="M12.5112 29.9999C12.191 30.0009 11.8746 29.9303 11.5853 29.7931C11.296 29.6559 11.0411 29.4557 10.8394 29.2071L0.487562 16.3511C0.17233 15.9677 0 15.4868 0 14.9906C0 14.4943 0.17233 14.0134 0.487562 13.63L11.2038 0.774039C11.5676 0.336473 12.0903 0.061304 12.6571 0.00906664C13.2238 -0.0431707 13.7881 0.131803 14.2257 0.495494C14.6634 0.859185 14.9387 1.3818 14.9909 1.94838C15.0432 2.51495 14.8682 3.07907 14.5044 3.51664L4.92407 15.0013L14.1829 26.4859C14.445 26.8004 14.6114 27.1834 14.6626 27.5895C14.7138 27.9957 14.6475 28.408 14.4717 28.7776C14.2958 29.1473 14.0177 29.4589 13.6703 29.6755C13.3228 29.8921 12.9206 30.0046 12.5112 29.9999Z" fill="black"/>
</svg>
