<svg width="30" height="30" viewBox="0 0 30 30" fill="none" xmlns="http://www.w3.org/2000/svg">
<path d="M30 10.5H18.55L15 0L11.45 10.5H0L9.25 17L5.7 27.5L15 21L24.25 27.5L20.7 17L30 10.5Z" fill="#7EF0FF"/>
<path d="M22.1 9.15001L24.1 3.45001L18.85 7.05001L19.6 9.15001H22.1Z" fill="#FFDD85"/>
<path d="M12.95 24L15 30L17.05 24L15 22.6L12.95 24Z" fill="#FFDD85"/>
<path d="M24.35 16.15L22.45 17.45L23.25 19.85H29.7L24.35 16.15Z" fill="#FFDD85"/>
<path d="M11.15 7.05001L5.9 3.45001L7.9 9.15001H10.4L11.15 7.05001Z" fill="#FFDD85"/>
<path d="M5.65 16.15L0.300003 19.85H6.75L7.55 17.45L5.65 16.15Z" fill="#FFDD85"/>
</svg>
