<svg width="40" height="40" viewBox="0 0 40 40" fill="none" xmlns="http://www.w3.org/2000/svg">
<path opacity="0.3" d="M20 4C28.16 4 34.9 10.1 35.88 18H27.76C26.86 14.54 23.72 12 20 12C16.28 12 13.14 14.54 12.26 18H4.12C5.1 10.1 11.84 4 20 4Z" fill="black"/>
<path d="M20 0C8.96 0 0 8.96 0 20C0 31.04 8.96 40 20 40C31.04 40 40 31.04 40 20C40 8.96 31.04 0 20 0ZM20 4C28.16 4 34.9 10.1 35.88 18H27.76C26.86 14.54 23.72 12 20 12C16.28 12 13.14 14.54 12.26 18H4.12C5.1 10.1 11.84 4 20 4ZM24 20C24 22.2 22.2 24 20 24C17.8 24 16 22.2 16 20C16 17.8 17.8 16 20 16C22.2 16 24 17.8 24 20ZM20 36C11.84 36 5.1 29.9 4.12 22H12.24C13.12 25.46 16.26 28 19.98 28C23.7 28 26.84 25.46 27.72 22H35.84C34.9 29.9 28.16 36 20 36Z" fill="black"/>
</svg>
