<svg width="28" height="34" viewBox="0 0 28 34" fill="none" xmlns="http://www.w3.org/2000/svg">
<path d="M0 16.24L7.896 22.008L4.032 33.6L14.056 26.432L24.136 33.6L28 0L0 16.24Z" fill="#F5A300"/>
<path d="M17.864 21.224L23.968 16.856H16.408L14.056 9.79999L11.76 16.856H4.2L10.304 21.224L8.008 28.28L14.056 23.912L20.16 28.28L17.864 21.224Z" fill="white"/>
<path d="M17.92 14.784H19.88L28 0L17.248 12.712L17.92 14.784Z" fill="#FFCE31"/>
<path d="M28 0L15.456 7.28L16.464 10.416L28 0Z" fill="#FFCE31"/>
<path d="M26.264 14.784L28 0L22.512 14.784H26.264Z" fill="#FFCE31"/>
</svg>
