<svg width="217" height="218" viewBox="0 0 217 218" fill="none" xmlns="http://www.w3.org/2000/svg">
<path d="M14.5004 146.454H50.7514L65.2518 0H0L14.5004 146.454Z" fill="#FF5A79"/>
<path d="M32.6259 217.506C48.042 217.506 60.5392 205.171 60.5392 189.955C60.5392 174.739 48.042 162.404 32.6259 162.404C17.2098 162.404 4.71265 174.739 4.71265 189.955C4.71265 205.171 17.2098 217.506 32.6259 217.506Z" fill="#FF5A79"/>
<path d="M138.479 0.362551C96.4277 2.90012 74.3146 26.8258 72.502 69.9645H114.916C115.278 55.1016 123.978 43.8638 139.204 42.0512C154.429 40.6012 168.93 44.2263 173.28 54.3766C177.992 65.6144 167.48 78.6647 162.405 84.1024C152.979 94.2527 137.754 101.865 130.141 112.741C122.528 123.616 121.078 137.754 120.353 155.154H157.692C158.054 143.917 158.779 133.404 163.855 126.516C172.192 115.278 184.518 110.203 194.668 101.14C204.456 92.8026 214.968 82.6523 216.419 66.7019C222.219 19.9381 183.793 -2.53753 138.479 0.362551" fill="#FF5A79"/>
<path d="M139.566 217.506C152.58 217.506 163.13 207.119 163.13 194.305C163.13 181.492 152.58 171.105 139.566 171.105C126.553 171.105 116.003 181.492 116.003 194.305C116.003 207.119 126.553 217.506 139.566 217.506Z" fill="#FF5A79"/>
</svg>
