<svg width="211" height="364" viewBox="0 0 211 364" fill="none" xmlns="http://www.w3.org/2000/svg">
<path d="M126 0C159.418 0 191.466 13.275 215.096 36.9045C238.725 60.5341 252 92.5827 252 126C252 151.2 244.62 174.78 231.84 194.4L126 363.78L20.1604 194.4C6.94498 174.04 -0.0598004 150.273 0.000384594 126C0.000384594 92.5827 13.2753 60.5341 36.9049 36.9045C60.5345 13.275 92.5831 0 126 0ZM126 27C102.861 26.993 80.4507 35.0913 62.6612 49.8885C44.8718 64.6856 32.8275 85.2466 28.6204 108H75.0604C82.4404 86.94 102.42 72 126 72C149.58 72 169.56 86.94 176.94 108H223.38C219.173 85.2466 207.129 64.6856 189.34 49.8885C171.55 35.0913 149.139 26.993 126 27ZM126 180C114.822 180.032 103.912 176.583 94.7832 170.132C85.6547 163.681 78.7614 154.548 75.0604 144H28.6204C30.9604 156.42 35.4604 168.12 42.1204 178.38L42.8404 180C51.8604 193.83 64.1907 205.19 78.7126 213.048C93.2345 220.906 109.489 225.014 126 225C160.92 225 191.52 207 209.16 180L209.88 178.38C216.54 168.12 221.04 156.42 223.38 144H176.94C173.239 154.548 166.346 163.681 157.218 170.132C148.089 176.583 137.178 180.032 126 180ZM126 99C118.84 99 111.972 101.845 106.909 106.908C101.845 111.972 99.0004 118.839 99.0004 126C99.0004 133.161 101.845 140.028 106.909 145.092C111.972 150.155 118.84 153 126 153C133.161 153 140.029 150.155 145.092 145.092C150.156 140.028 153 133.161 153 126C153 118.839 150.156 111.972 145.092 106.908C140.029 101.845 133.161 99 126 99Z" fill="black" fill-opacity="0.1"/>
</svg>
