<svg width="295" height="106" viewBox="0 0 295 106" fill="none" xmlns="http://www.w3.org/2000/svg">
<path d="M54.8577 49.2125C53.8621 43.8684 46.8558 40.9267 39.8988 44.7019L41.6933 50.806L44.5204 59.8395L45.7988 63.9457C50.9981 60.6117 56.2467 56.6036 54.8577 49.2003V49.2125ZM47.9498 57.4248C47.1579 54.8216 46.3507 52.2231 45.5283 49.6293L44.8031 47.1411C46.1643 46.8483 47.5833 46.9898 48.8594 47.5456C49.5108 47.8643 50.654 48.5752 50.8998 49.948C51.4775 53.0123 50.445 55.2063 47.9498 57.4003V57.4248ZM159.902 40.7306C158.942 39.8479 157.809 39.172 156.575 38.7449C155.341 38.3178 154.032 38.1488 152.729 38.2482C151.427 38.3477 150.159 38.7136 149.004 39.323C147.85 39.9325 146.834 40.7726 146.019 41.7908C145.204 42.8091 144.609 43.9837 144.269 45.2415C143.929 46.4994 143.853 47.8135 144.045 49.102C144.237 50.3904 144.693 51.6257 145.385 52.7307C146.077 53.8358 146.989 54.7869 148.065 55.525L160.578 41.3925C160.361 41.1637 160.136 40.9429 159.902 40.7306V40.7306ZM148.09 50.6834C147.485 49.5823 147.233 48.3224 147.369 47.0741C147.506 45.8258 148.023 44.6494 148.852 43.7039C149.681 42.7585 150.781 42.0898 152.003 41.7882C153.225 41.4866 154.511 41.5666 155.686 42.0176L148.09 50.6834ZM240.904 53.4413C241.018 53.8606 241.072 54.2939 241.064 54.7283C240.941 57.3636 238.446 59.4105 235.484 59.2634C232.521 59.1654 230.198 56.9223 230.321 54.2993C230.407 51.8111 232.62 49.8622 235.349 49.7396C234.815 49.6198 234.272 49.55 233.726 49.5312C228.748 49.3229 224.692 52.8407 224.532 57.2042C224.323 61.8619 228.084 65.6862 232.964 65.8945C237.954 66.0784 241.998 62.5606 242.183 57.9151C242.236 56.3291 241.793 54.7658 240.917 53.4413H240.904ZM90.2823 58.7854C90.2823 61.4329 87.8608 63.5657 84.8985 63.5657C81.924 63.5657 79.5148 61.4452 79.5148 58.7854C79.5148 56.3094 81.6413 54.2747 84.3577 54.0296C83.8224 53.932 83.2794 53.8828 82.7352 53.8825C77.7694 53.8825 73.8483 57.5597 73.8483 61.9232C73.8483 66.6055 77.7817 70.2581 82.6492 70.2581C87.6273 70.2581 91.536 66.6055 91.536 61.9232C91.53 60.3425 91.0175 58.805 90.0733 57.5352C90.1963 57.9029 90.2823 58.3319 90.2823 58.7854V58.7854ZM271.806 32.0035L269.593 41.0615L267.553 31.0106L240.29 25.0414L240.486 40.1545L244.592 41.0738L244.297 43.8071L244.174 43.7213C239.085 41.0493 232.78 40.7796 226.843 43.0104C224.839 43.7458 222.983 44.7632 221.311 45.9766L217.194 20.0895H199.064L198.572 23.0803H179.483L177.307 36.3793L175.709 34.4304C173.438 31.6555 170.58 29.4148 167.34 27.8681C164.099 26.3214 160.557 25.5069 156.965 25.4827L173.165 16.7923L161.881 0L141.44 23.448L144.968 27.738C141.906 28.9694 139.098 30.7518 136.683 32.9963L119.18 17.5032L113.071 29.1843L113.305 17.9568L85.9433 26.6839L86.644 41.3434L91.3025 40.1422L91.9908 47.5578C86.6685 45.1922 80.2646 45.229 74.34 47.7294C72.6079 48.4849 70.9635 49.426 69.4356 50.5363C70.5197 46.224 70.1879 41.6786 68.4892 37.5682C66.4403 32.8957 62.9131 29.021 58.4469 26.5368C55.253 24.4558 51.6087 23.1618 47.8146 22.7616C38.35 21.1068 26.9679 22.7983 15.7825 27.5664C11.8232 29.223 8.00798 31.2031 4.37583 33.4866L0 36.2567L2.64271 40.7061L10.8413 54.5199C10.8413 54.5199 13.3488 58.7609 13.361 58.7486L17.7983 56.5791L18.4129 56.2972L38.7925 101.649L40.7592 106L45.3071 104.554L56.3204 101.024L61.1633 99.4915L59.885 94.5886L54.0342 72.1702C55.7181 70.9322 57.2792 69.6085 58.7419 68.2357C58.41 70.92 58.5821 73.6288 59.3196 76.2273C60.8438 81.6573 64.4329 85.9473 69.3742 88.3129C74.721 90.8869 81.2356 90.8869 87.2708 88.3374C90.3069 87.0627 93.011 85.1873 95.2727 82.9565L96.1085 91.8797L115.406 89.0483L115.382 71.8025L155.723 91.6591V72.4154C161.562 71.8362 167.208 70.0137 172.28 67.0712L170.584 77.404L192.34 80.8238L193.532 73.016L199.199 83.4836L202.677 76.8034L203.956 87.7736L228.6 92.0881L227.298 83.8268C231.698 84.2961 236.138 83.4514 240.056 81.3999L239.073 90.2005L255.495 92.5171L255.618 99.2218L272.703 104.59L295 37.6173L271.806 32.0035ZM175.451 41.9318L176.582 40.7428L175.205 49.2003L171.653 45.9889L175.451 41.9318ZM160.984 7.45236L166.97 15.5543L149.885 23.9995L148.692 22.21L160.984 7.45236ZM47.876 69.8536L54.6979 95.9369L43.66 99.4547L21.031 49.0532C19.8019 49.7028 17.5402 50.7692 15.4383 51.7865L7.25208 37.985C10.5217 35.9135 14.0863 34.0749 17.8844 32.4692C28.5535 27.9463 38.7433 26.5858 46.8927 28.0322C49.7567 28.3631 52.805 29.1966 55.4969 30.9739C59.1598 33.0331 61.95 35.9503 63.5725 39.6887C67.5058 48.759 60.9298 61.8374 47.8883 69.8536H47.876ZM98.5915 65.2204C98.4685 69.1182 97.0304 72.9914 94.6458 76.2886C92.3106 79.5496 89.1275 82.1135 85.4394 83.7042C75.8642 87.7491 66.3012 83.7042 63.7569 74.6339C61.2617 65.8823 67.0265 55.4514 76.2944 51.4679C82.2312 48.9919 88.1681 49.568 92.421 52.4484C95.0392 54.238 97.055 56.91 97.9892 60.2562C98.446 61.8742 98.6492 63.5528 98.5915 65.2327V65.2204ZM150.659 83.6552L110.662 63.6883L110.736 84.6113L100.374 86.0208L99.6485 77.404C102.844 71.9373 104.012 65.4901 102.353 59.5821C101.475 56.4221 99.7792 53.5477 97.436 51.2472L95.9488 33.6827L91.3148 34.8839L91.1058 30.4468L107.724 25.4949L108.744 42.6059L120.999 25.4459L132.971 36.8083L116.23 54.4096L131.963 60.624C133.709 63.9334 136.388 66.7525 139.756 68.8363C143.001 70.8342 146.738 72.0231 150.684 72.4031V83.6552H150.659ZM129.886 54.7283L124.306 52.5955L129.505 47.5701C129.271 49.8744 129.382 52.2891 129.874 54.7283H129.886ZM173.423 59.9621C169.588 63.1367 165.188 65.1959 159.423 66.5809C158.202 66.8744 156.961 67.0833 155.711 67.2061C146.529 68.1008 138.822 63.8966 135.897 57.0816C135.535 56.2557 135.251 55.3981 135.049 54.5199C133.696 48.7835 134.852 43.6478 137.691 39.6274C138.522 38.4498 139.492 37.3757 140.58 36.4283C143.437 33.9462 146.866 32.2072 150.561 31.3661C159.312 29.2701 167.019 31.9299 171.739 37.7031L155.084 55.4024C156.51 55.5204 157.946 55.3834 159.325 54.9979C163.295 54.0296 165.52 51.9336 167.474 49.6538L174.136 55.6108L176.152 57.4494C175.285 58.3319 174.374 59.1705 173.423 59.9621V59.9621ZM208.786 83.5816L205.172 59.6311L200.035 72.8444L192.352 56.3217H192.266L189.243 75.4429L176.447 73.2366L178.241 62.5729C178.726 62.1164 179.201 61.6505 179.667 61.1755L183.822 56.91L179.778 53.3064L184.08 27.8973H196.986L200.207 45.4986L203.82 25.1149H213.064L216.899 49.948C212.031 55.476 209.647 62.9406 211.294 69.7433C211.929 72.5475 213.225 75.1605 215.074 77.3664C216.923 79.5724 219.272 81.3079 221.926 82.4295L222.418 85.6531L208.786 83.5816ZM240.683 75.7738C239.252 76.7888 237.694 77.6129 236.049 78.2253C233.035 79.4293 229.741 79.7566 226.548 79.1691C224.567 78.7923 222.69 77.9983 221.041 76.8402C218.366 74.8875 216.489 72.0361 215.756 68.8118C214.772 64.6933 215.67 60.2808 217.894 56.4075C219.013 54.5199 220.439 52.7549 222.123 51.2227C223.991 49.5435 226.179 48.1584 228.6 47.2391C234.242 45.1309 239.81 45.8663 243.719 48.661C246.335 50.5343 248.178 53.2917 248.906 56.4198C250.111 61.3962 248.685 66.6913 245.538 70.969C244.187 72.8186 242.548 74.4407 240.683 75.7738V75.7738ZM269.483 98.3393L260.018 95.5324L259.207 60.7465L254.438 87.5897L244.113 85.935L244.875 78.213C251.598 72.5257 255.175 63.5657 253.221 55.4637C252.405 51.9573 250.545 48.7786 247.886 46.3444L248.759 37.2373L244.862 36.1954L245.108 31.3416L262.906 34.8962L268.893 63.1857L275.026 37.8256L288.547 40.8164L269.483 98.3393Z" fill="black"/>
</svg>
