<svg width="210" height="210" viewBox="0 0 210 210" fill="none" xmlns="http://www.w3.org/2000/svg">
<path d="M104.806 139.194C88.2466 139.194 74.4337 127.472 71.1547 111.896H16.0672C19.961 157.188 57.9567 192.724 104.232 192.724C150.507 192.724 188.544 157.188 192.396 111.896H138.457C135.178 127.513 121.365 139.194 104.806 139.194Z" fill="white"/>
<path d="M124.48 190.429C161.205 181.822 189.117 150.384 192.396 111.896H170.673C168.501 146.818 150.179 176.411 124.48 190.429Z" fill="#DFDFDF"/>
<path d="M125.095 104.806C125.054 104.806 125.054 104.806 125.095 104.806C125.054 102.305 124.603 99.9281 123.783 97.7148C120.914 90.0091 113.495 84.5577 104.806 84.5577C96.1163 84.5577 88.6975 90.0501 85.8283 97.7148C85.0086 99.9281 84.5577 102.305 84.5577 104.806H84.5987C84.5987 107.306 85.0496 109.683 85.8693 111.897C88.7385 119.602 96.1572 125.054 104.847 125.054C113.536 125.054 120.955 119.561 123.824 111.897C124.644 109.724 125.095 107.306 125.095 104.806Z" fill="white"/>
<path d="M104.847 70.4579C121.406 70.4579 135.219 82.1804 138.498 97.7558H193.585C189.691 52.4233 151.696 16.887 105.379 16.887C59.0633 16.887 21.1087 52.4233 17.2149 97.7148H71.1957C74.4747 82.1394 88.2876 70.4579 104.847 70.4579Z" fill="#FF1C1C"/>
<path d="M170.673 97.7148H193.544C190.183 58.5715 161.328 26.683 123.66 18.7724C149.81 32.5853 168.46 62.4653 170.673 97.7148Z" fill="#DF1818"/>
<path d="M105.379 16.8869C151.696 16.8869 189.691 52.4233 193.544 97.7148H138.457C135.178 82.1394 121.365 70.4169 104.806 70.4169C88.2466 70.4169 74.4337 82.1394 71.1547 97.7148H17.2149C21.1087 52.4233 59.1043 16.8869 105.379 16.8869ZM123.783 97.7148C124.603 99.9281 125.054 102.305 125.054 104.806H125.095C125.095 107.306 124.644 109.683 123.824 111.897C120.955 119.602 113.536 125.054 104.847 125.054C96.1572 125.054 88.7385 119.561 85.8693 111.897C85.0496 109.683 84.5987 107.306 84.5987 104.806H84.5577C84.5577 102.305 85.0086 99.9281 85.8283 97.7148C88.6975 90.0091 96.1163 84.5577 104.806 84.5577C113.495 84.5577 120.914 90.0501 123.783 97.7148ZM104.232 192.765C57.9157 192.765 19.92 157.229 16.0672 111.938H71.1547C74.4337 127.513 88.2466 139.235 104.806 139.235C121.365 139.235 135.178 127.513 138.457 111.938H192.437C188.544 157.188 150.548 192.765 104.232 192.765ZM104.806 0C46.931 0 0 46.931 0 104.806C0 162.68 46.931 209.611 104.806 209.611C162.68 209.611 209.652 162.721 209.652 104.806C209.652 46.89 162.721 0 104.806 0Z" fill="black"/>
</svg>
