<svg width="15" height="30" viewBox="0 0 15 30" fill="none" xmlns="http://www.w3.org/2000/svg">
<path d="M2.48885 0.000147388C2.80904 -0.000940993 3.1254 0.0697069 3.41469 0.206898C3.70399 0.344089 3.95886 0.544339 4.16058 0.792932L14.5124 13.6489C14.8277 14.0323 15 14.5132 15 15.0094C15 15.5057 14.8277 15.9866 14.5124 16.37L3.79622 29.226C3.43243 29.6635 2.90967 29.9387 2.34294 29.9909C1.77621 30.0432 1.21194 29.8682 0.77425 29.5045C0.336564 29.1408 0.0613204 28.6182 0.00906877 28.0516C-0.0431829 27.485 0.131838 26.9209 0.495629 26.4834L10.0759 14.9987L0.817118 3.5141C0.555036 3.19959 0.388555 2.81661 0.337375 2.41047C0.286196 2.00434 0.352458 1.59204 0.528324 1.22237C0.704189 0.852704 0.982297 0.541138 1.32974 0.324536C1.67718 0.107935 2.07942 -0.00463462 2.48885 0.000147388Z" fill="black"/>
</svg>
