<svg fill="none" height="896" viewBox="0 0 414 896" width="414" xmlns="http://www.w3.org/2000/svg" xmlns:xlink="http://www.w3.org/1999/xlink"><filter id="a" color-interpolation-filters="sRGB" filterUnits="userSpaceOnUse" height="113" width="396" x="9" y="475"><feFlood flood-opacity="0" result="BackgroundImageFix"/><feColorMatrix in="SourceAlpha" result="hardAlpha" type="matrix" values="0 0 0 0 0 0 0 0 0 0 0 0 0 0 0 0 0 0 127 0"/><feOffset dy="4"/><feGaussianBlur stdDeviation="5"/><feComposite in2="hardAlpha" operator="out"/><feColorMatrix type="matrix" values="0 0 0 0 0 0 0 0 0 0 0 0 0 0 0 0 0 0 0.25 0"/><feBlend in2="BackgroundImageFix" mode="normal" result="effect1_dropShadow"/><feBlend in="SourceGraphic" in2="effect1_dropShadow" mode="normal" result="shape"/></filter><filter id="b" color-interpolation-filters="sRGB" filterUnits="userSpaceOnUse" height="33" width="100" x="17" y="152"><feFlood flood-opacity="0" result="BackgroundImageFix"/><feColorMatrix in="SourceAlpha" result="hardAlpha" type="matrix" values="0 0 0 0 0 0 0 0 0 0 0 0 0 0 0 0 0 0 127 0"/><feOffset dy="1"/><feGaussianBlur stdDeviation="1"/><feComposite in2="hardAlpha" operator="out"/><feColorMatrix type="matrix" values="0 0 0 0 0 0 0 0 0 0 0 0 0 0 0 0 0 0 0.25 0"/><feBlend in2="BackgroundImageFix" mode="normal" result="effect1_dropShadow"/><feBlend in="SourceGraphic" in2="effect1_dropShadow" mode="normal" result="shape"/></filter><filter id="c" color-interpolation-filters="sRGB" filterUnits="userSpaceOnUse" height="33" width="100" x="118" y="152"><feFlood flood-opacity="0" result="BackgroundImageFix"/><feColorMatrix in="SourceAlpha" result="hardAlpha" type="matrix" values="0 0 0 0 0 0 0 0 0 0 0 0 0 0 0 0 0 0 127 0"/><feOffset dy="1"/><feGaussianBlur stdDeviation="1"/><feComposite in2="hardAlpha" operator="out"/><feColorMatrix type="matrix" values="0 0 0 0 0 0 0 0 0 0 0 0 0 0 0 0 0 0 0.25 0"/><feBlend in2="BackgroundImageFix" mode="normal" result="effect1_dropShadow"/><feBlend in="SourceGraphic" in2="effect1_dropShadow" mode="normal" result="shape"/></filter><clipPath id="d"><path d="m0 0h414v896h-414z"/></clipPath><g clip-path="url(#d)"><path d="m0 0h414v896h-414z" fill="#fff"/><path d="m0 0h414v69h-414z" fill="#d86666"/><path d="m74.0391 35.9883v6.0117h-3.5157v-17.0625h6.6563c1.2812 0 2.4062.2344 3.375.7031.9765.4688 1.7265 1.1367 2.25 2.0039.5234.8594.7851 1.8399.7851 2.9414 0 1.6719-.5742 2.9922-1.7226 3.961-1.1406.9609-2.7227 1.4414-4.7461 1.4414zm0-2.8477h3.1406c.9297 0 1.6367-.2187 2.1211-.6562.4922-.4375.7383-1.0625.7383-1.875 0-.836-.2461-1.5117-.7383-2.0274-.4922-.5156-1.1719-.7812-2.0391-.7968h-3.2226zm11.0625 2.4024c0-1.2578.2422-2.3789.7265-3.3633.4844-.9844 1.1797-1.7461 2.086-2.2852.914-.539 1.9726-.8086 3.1757-.8086 1.711 0 3.1055.5235 4.1836 1.5703 1.086 1.0469 1.6914 2.4688 1.8164 4.2657l.0235.8672c0 1.9453-.543 3.5078-1.6289 4.6875-1.086 1.1718-2.543 1.7578-4.3711 1.7578s-3.2891-.586-4.3828-1.7578c-1.086-1.1719-1.6289-2.7657-1.6289-4.7813zm3.3867.2461c0 1.2031.2265 2.125.6797 2.7656.4531.6328 1.1015.9492 1.9453.9492.8203 0 1.4609-.3125 1.9219-.9375.4609-.6328.6914-1.6406.6914-3.0234 0-1.1797-.2305-2.0938-.6914-2.7422-.461-.6485-1.1094-.9727-1.9454-.9727-.8281 0-1.4687.3242-1.9218.9727-.4532.6406-.6797 1.6367-.6797 2.9883zm15.3167 1.125-1.219 1.2187v3.8672h-3.3868v-18h3.3868v9.9727l.656-.8438 3.246-3.8086h4.067l-4.582 5.2852 4.98 7.3945h-3.891zm13.816 5.3203c-1.859 0-3.375-.5703-4.547-1.711-1.164-1.1406-1.746-2.6601-1.746-4.5586v-.3281c0-1.2734.246-2.4101.738-3.4101.493-1.0078 1.188-1.7813 2.086-2.3204.907-.5468 1.938-.8203 3.094-.8203 1.734 0 3.098.5469 4.09 1.6407 1 1.0937 1.5 2.6445 1.5 4.6523v1.3828h-8.074c.109.8281.437 1.4922.984 1.9922.555.5 1.254.75 2.098.75 1.304 0 2.324-.4727 3.058-1.418l1.664 1.8633c-.507.7188-1.195 1.2813-2.062 1.6875-.867.3985-1.828.5977-2.883.5977zm-.387-10.4063c-.672 0-1.218.2266-1.64.6797-.414.4531-.68 1.1016-.797 1.9453h4.711v-.2695c-.016-.75-.219-1.3281-.61-1.7344-.39-.414-.945-.6211-1.664-.6211zm7.008 3.7383c0-1.9766.442-3.5508 1.324-4.7226.891-1.1719 2.106-1.7579 3.645-1.7579 1.234 0 2.254.461 3.059 1.3829v-6.4688h3.398v18h-3.059l-.164-1.3477c-.843 1.0547-1.929 1.5821-3.257 1.5821-1.493 0-2.692-.586-3.598-1.7578-.899-1.1797-1.348-2.8164-1.348-4.9102zm3.387.2461c0 1.1875.207 2.0977.621 2.7305s1.016.9492 1.805.9492c1.047 0 1.785-.4414 2.215-1.3242v-5.0039c-.422-.8829-1.153-1.3243-2.192-1.3243-1.633 0-2.449 1.3243-2.449 3.9727zm16.5 6.4219c-1.859 0-3.375-.5703-4.547-1.711-1.164-1.1406-1.746-2.6601-1.746-4.5586v-.3281c0-1.2734.246-2.4101.738-3.4101.492-1.0078 1.188-1.7813 2.086-2.3204.906-.5468 1.938-.8203 3.094-.8203 1.734 0 3.098.5469 4.09 1.6407 1 1.0937 1.5 2.6445 1.5 4.6523v1.3828h-8.074c.109.8281.437 1.4922.984 1.9922.555.5 1.254.75 2.098.75 1.304 0 2.324-.4727 3.058-1.418l1.664 1.8633c-.508.7188-1.195 1.2813-2.062 1.6875-.867.3985-1.828.5977-2.883.5977zm-.387-10.4063c-.672 0-1.219.2266-1.64.6797-.414.4531-.68 1.1016-.797 1.9453h4.711v-.2695c-.016-.75-.219-1.3281-.61-1.7344-.39-.414-.945-.6211-1.664-.6211zm12.363 1.2774 2.133-3.7852h3.621l-3.609 6.2109 3.762 6.4688h-3.633l-2.262-3.9844-2.25 3.9844h-3.644l3.761-6.4688-3.597-6.2109h3.633z" fill="#fff"/><path d="m39 18c8.16 0 14.9 6.1 15.88 14h-8.12c-.9-3.46-4.04-6-7.76-6s-6.86 2.54-7.74 6h-8.14c.98-7.9 7.72-14 15.88-14z" fill="#000" opacity=".3"/><path d="m39 14c-11.04 0-20 8.96-20 20s8.96 20 20 20 20-8.96 20-20-8.96-20-20-20zm0 4c8.16 0 14.9 6.1 15.88 14h-8.12c-.9-3.46-4.04-6-7.76-6s-6.86 2.54-7.74 6h-8.14c.98-7.9 7.72-14 15.88-14zm4 16c0 2.2-1.8 4-4 4s-4-1.8-4-4 1.8-4 4-4 4 1.8 4 4zm-4 16c-8.16 0-14.9-6.1-15.88-14h8.12c.88 3.46 4.02 6 7.74 6s6.86-2.54 7.74-6h8.12c-.94 7.9-7.68 14-15.84 14z" fill="#000"/><path d="m0 69h414v827h-414z" fill="#88d0c4"/><path d="m329 127c33.418 0 65.466 13.275 89.096 36.905 23.629 23.629 36.904 55.678 36.904 89.095 0 25.2-7.38 48.78-20.16 68.4l-105.84 169.38-105.84-169.38c-13.215-20.36-20.22-44.127-20.16-68.4 0-33.417 13.275-65.466 36.905-89.095 23.63-23.63 55.678-36.905 89.095-36.905zm0 27c-23.139-.007-45.549 8.091-63.339 22.888-17.789 14.798-29.834 35.359-34.041 58.112h46.44c7.38-21.06 27.36-36 50.94-36s43.56 14.94 50.94 36h46.44c-4.207-22.753-16.251-43.314-34.04-58.112-17.79-14.797-40.201-22.895-63.34-22.888zm0 153c-11.178.032-22.088-3.417-31.217-9.868-9.128-6.451-16.022-15.584-19.723-26.132h-46.44c2.34 12.42 6.84 24.12 13.5 34.38l.72 1.62c9.02 13.83 21.351 25.19 35.873 33.048s30.776 11.966 47.287 11.952c34.92 0 65.52-18 83.16-45l.72-1.62c6.66-10.26 11.16-21.96 13.5-34.38h-46.44c-3.701 10.548-10.594 19.681-19.722 26.132-9.129 6.451-20.04 9.9-31.218 9.868zm0-81c-7.16 0-14.028 2.845-19.091 7.908-5.064 5.064-7.909 11.931-7.909 19.092s2.845 14.028 7.909 19.092c5.063 5.063 11.931 7.908 19.091 7.908 7.161 0 14.029-2.845 19.092-7.908 5.064-5.064 7.908-11.931 7.908-19.092s-2.844-14.028-7.908-19.092c-5.063-5.063-11.931-7.908-19.092-7.908z" fill="#000" fill-opacity=".1"/><path d="m0 391h414v505h-414z" fill="#fff"/><path d="m34.5566 457.285c0-.996-.3515-1.758-1.0546-2.285-.7032-.539-1.9688-1.102-3.7969-1.688-1.8281-.597-3.2754-1.183-4.3418-1.757-2.9063-1.571-4.3594-3.686-4.3594-6.346 0-1.383.3867-2.613 1.1602-3.691.7851-1.09 1.9043-1.94 3.3574-2.549 1.4648-.61 3.1055-.914 4.9219-.914 1.8281 0 3.457.334 4.8867 1.002 1.4297.656 2.5371 1.588 3.3222 2.795.7969 1.207 1.1954 2.578 1.1954 4.113h-5.2735c0-1.172-.3691-2.08-1.1074-2.725-.7383-.656-1.7754-.984-3.1113-.984-1.2891 0-2.291.275-3.0059.826-.7148.539-1.0723 1.254-1.0723 2.145 0 .832.4161 1.529 1.2481 2.091.8437.563 2.0801 1.09 3.709 1.582 3 .903 5.1855 2.022 6.5566 3.358s2.0567 3 2.0567 4.992c0 2.215-.8379 3.955-2.5137 5.221-1.6758 1.254-3.9317 1.881-6.7676 1.881-1.9687 0-3.7617-.358-5.3789-1.073-1.6172-.726-2.8535-1.717-3.709-2.97-.8437-1.254-1.2656-2.707-1.2656-4.36h5.291c0 2.824 1.6875 4.237 5.0625 4.237 1.2539 0 2.2324-.252 2.9356-.756.7031-.516 1.0546-1.231 1.0546-2.145zm14.625-16.98v4.675h3.252v3.727h-3.252v9.492c0 .703.1348 1.207.4043 1.512.2696.305.7852.457 1.5469.457.5625 0 1.0606-.041 1.4942-.123v3.85c-.9961.304-2.0215.457-3.0762.457-3.5625 0-5.3789-1.799-5.4492-5.397v-10.248h-2.7774v-3.727h2.7774v-4.675zm17.1036 23.695c-.2344-.457-.4043-1.025-.5098-1.705-1.2305 1.371-2.8301 2.057-4.7988 2.057-1.8633 0-3.4102-.54-4.6407-1.618-1.2187-1.078-1.8281-2.437-1.8281-4.078 0-2.015.7442-3.562 2.2324-4.64 1.5-1.078 3.6621-1.623 6.4864-1.635h2.3379v-1.09c0-.879-.2286-1.582-.6856-2.109-.4453-.528-1.1543-.791-2.1269-.791-.8555 0-1.5293.205-2.0215.615-.4805.41-.7207.973-.7207 1.687h-5.0801c0-1.101.3398-2.121 1.0195-3.058.6797-.938 1.6406-1.67 2.8828-2.197 1.2422-.54 2.6368-.809 4.1836-.809 2.3438 0 4.2012.592 5.5723 1.775 1.3828 1.172 2.0742 2.825 2.0742 4.957v8.244c.0117 1.805.2637 3.17.7559 4.096v.299zm-4.2012-3.533c.75 0 1.4414-.164 2.0742-.492.6328-.34 1.1016-.791 1.4063-1.354v-3.269h-1.8985c-2.543 0-3.8965.878-4.0605 2.636l-.0176.299c0 .633.2226 1.154.668 1.565.4453.41 1.0546.615 1.8281.615zm18.5625-20.162v4.675h3.2519v3.727h-3.2519v9.492c0 .703.1347 1.207.4043 1.512.2695.305.7851.457 1.5469.457.5625 0 1.0605-.041 1.4941-.123v3.85c-.9961.304-2.0215.457-3.0762.457-3.5625 0-5.3789-1.799-5.4492-5.397v-10.248h-2.7773v-3.727h2.7773v-4.675zm16.3828 18.439c0-.621-.3105-1.107-.9316-1.459-.6094-.363-1.5938-.685-2.9532-.967-4.5234-.949-6.7851-2.871-6.7851-5.765 0-1.688.6972-3.094 2.0918-4.219 1.4062-1.137 3.2402-1.705 5.5019-1.705 2.4141 0 4.3418.568 5.7832 1.705 1.4527 1.137 2.1797 2.613 2.1797 4.43h-5.0801c0-.727-.2343-1.325-.7031-1.793-.4687-.481-1.2012-.721-2.1973-.721-.8554 0-1.5175.193-1.9863.58-.4687.387-.7031.879-.7031 1.477 0 .562.2637 1.019.791 1.371.5391.34 1.4414.638 2.707.896 1.2657.246 2.3321.528 3.1993.844 2.6836.984 4.0256 2.689 4.0256 5.115 0 1.735-.744 3.141-2.2327 4.219-1.4883 1.066-3.4101 1.6-5.7656 1.6-1.5937 0-3.0117-.282-4.2539-.844-1.2305-.574-2.1973-1.354-2.9004-2.338-.7031-.996-1.0547-2.068-1.0547-3.217h4.8164c.0469.902.3809 1.594 1.002 2.074.6211.481 1.4531.721 2.4961.721.9726 0 1.705-.182 2.1972-.545.5039-.375.7559-.861.7559-1.459z" fill="#000"/><g filter="url(#a)"><rect fill="#fff" height="93" rx="10" width="376" x="19" y="481"/></g><path d="m63.8418 520h-2.9297v-6.094h-5.7129v6.094h-2.9297v-14.219h2.9297v5.762h5.7129v-5.762h2.9297zm7.2461.195c-1.5495 0-2.8125-.475-3.7891-1.425-.97-.951-1.455-2.217-1.455-3.799v-.274c0-1.061.205-2.008.6152-2.842.4101-.839.9896-1.484 1.7383-1.933.7552-.456 1.6145-.684 2.5781-.684 1.4453 0 2.5814.456 3.4082 1.367.8333.912 1.25 2.204 1.25 3.877v1.153h-6.7285c.0911.69.3646 1.243.8203 1.66.4622.417 1.0449.625 1.748.625 1.0873 0 1.9369-.394 2.5489-1.182l1.3867 1.553c-.4232.599-.9961 1.068-1.7188 1.406-.7226.332-1.5234.498-2.4023.498zm-.3223-8.672c-.5599 0-1.0156.189-1.3672.567-.345.377-.5664.918-.664 1.621h3.9258v-.225c-.0131-.625-.1823-1.106-.5079-1.445-.3255-.345-.7877-.518-1.3867-.518zm9.2578 8.477h-2.832v-10.566h2.832zm-2.998-13.301c0-.423.14-.771.4199-1.045.2865-.273.6738-.41 1.1621-.41.4818 0 .8659.137 1.1524.41.2864.274.4297.622.4297 1.045 0 .43-.1465.781-.4395 1.055-.2865.273-.6673.41-1.1426.41-.4752 0-.8594-.137-1.1523-.41-.2865-.274-.4297-.625-.4297-1.055zm4.9219 7.94c0-1.621.3841-2.927 1.1523-3.916.7747-.99 1.8164-1.485 3.125-1.485 1.1589 0 2.0606.397 2.7051 1.192l.1172-.996h2.5586v10.214c0 .925-.2116 1.729-.6348 2.413-.4167.683-1.0059 1.204-1.7676 1.562s-1.6536.537-2.6758.537c-.7747 0-1.5299-.156-2.2656-.469-.7357-.306-1.2923-.703-1.6699-1.191l1.25-1.719c.7031.788 1.556 1.182 2.5586 1.182.7487 0 1.3314-.202 1.748-.606.4167-.397.625-.963.625-1.699v-.566c-.651.735-1.5071 1.103-2.5683 1.103-1.2696 0-2.2982-.494-3.086-1.484-.7812-.996-1.1718-2.315-1.1718-3.955zm2.8222.205c0 .957.1921 1.709.5762 2.256.3841.54.9115.81 1.582.81.8594 0 1.4746-.322 1.8457-.967v-4.443c-.3776-.645-.9863-.967-1.8261-.967-.6771 0-1.211.277-1.6016.83-.3841.554-.5762 1.38-.5762 2.481zm11.7676-4.258c.7487-.898 1.6895-1.348 2.8223-1.348 2.2916 0 3.4536 1.332 3.4866 3.994v6.768h-2.823v-6.689c0-.606-.1298-1.052-.3902-1.338-.2604-.293-.6933-.44-1.2988-.44-.8268 0-1.4258.319-1.7969.957v7.51h-2.8223v-15h2.8223zm11.8169-3.75v2.598h1.806v2.07h-1.806v5.273c0 .391.074.671.224.84s.436.254.86.254c.312 0 .589-.023.83-.068v2.138c-.554.17-1.123.254-1.709.254-1.98 0-2.989-.999-3.028-2.998v-5.693h-1.543v-2.07h1.543v-2.598z" fill="#b7b7b7"/><path d="m63.6445 542.945c0 2.36-.4883 4.164-1.4648 5.414-.9766 1.25-2.4063 1.875-4.2891 1.875-1.8594 0-3.2812-.613-4.2656-1.839-.9844-1.227-1.4883-2.985-1.5117-5.274v-3.141c0-2.382.4922-4.191 1.4765-5.425.9922-1.235 2.418-1.852 4.2774-1.852s3.2812.613 4.2656 1.84c.9844 1.219 1.4883 2.973 1.5117 5.262zm-3.3867-3.445c0-1.414-.1953-2.441-.5859-3.082-.3828-.648-.9844-.973-1.8047-.973-.7969 0-1.3867.309-1.7695.926-.375.609-.5743 1.567-.5977 2.871v4.149c0 1.39.1875 2.425.5625 3.105.3828.672.9922 1.008 1.8281 1.008.8282 0 1.4258-.324 1.793-.973.3672-.648.5586-1.64.5742-2.976zm6 8.836c0-.539.1797-.977.5391-1.313.3672-.335.8242-.503 1.3711-.503.5547 0 1.0117.168 1.3711.503.3671.336.5507.774.5507 1.313 0 .531-.1796.965-.539 1.301-.3594.328-.8203.492-1.3828.492-.5547 0-1.0118-.164-1.3711-.492-.3594-.336-.5391-.77-.5391-1.301zm18.2695-13.5-6.5976 15.164h-3.5742l6.6093-14.32h-8.4843v-2.742h12.0468zm13.6641 8.109c0 2.36-.4883 4.164-1.4648 5.414-.9766 1.25-2.4063 1.875-4.2891 1.875-1.8594 0-3.2813-.613-4.2656-1.839-.9844-1.227-1.4883-2.985-1.5117-5.274v-3.141c0-2.382.4921-4.191 1.4765-5.425.9922-1.235 2.418-1.852 4.2774-1.852 1.8593 0 3.2812.613 4.2656 1.84.9844 1.219 1.4883 2.973 1.5117 5.262zm-3.3867-3.445c0-1.414-.1953-2.441-.5859-3.082-.3829-.648-.9844-.973-1.8047-.973-.7969 0-1.3868.309-1.7696.926-.375.609-.5742 1.567-.5976 2.871v4.149c0 1.39.1875 2.425.5625 3.105.3828.672.9922 1.008 1.8281 1.008.8281 0 1.4258-.324 1.793-.973.3672-.648.5586-1.64.5742-2.976zm17.0743 8.004c.625 0 1.133-.172 1.523-.516.391-.343.594-.8.61-1.371h3.176c-.008.86-.243 1.649-.704 2.367-.461.711-1.093 1.266-1.898 1.664-.797.391-1.68.586-2.648.586-1.813 0-3.243-.574-4.29-1.722-1.046-1.157-1.57-2.75-1.57-4.782v-.222c0-1.953.52-3.512 1.559-4.676s2.465-1.746 4.277-1.746c1.586 0 2.856.453 3.809 1.359.961.899 1.449 2.098 1.465 3.598h-3.176c-.016-.656-.219-1.188-.61-1.594-.39-.414-.906-.621-1.547-.621-.789 0-1.386.289-1.793.867-.398.571-.597 1.5-.597 2.789v.352c0 1.305.199 2.242.597 2.812.399.571 1.004.856 1.817.856zm10.418-10.184.105 1.418c.899-1.101 2.114-1.652 3.645-1.652 1.633 0 2.754.644 3.363 1.934.891-1.29 2.16-1.934 3.809-1.934 1.375 0 2.398.402 3.07 1.207.672.797 1.008 2 1.008 3.609v8.098h-3.399v-8.086c0-.719-.14-1.242-.421-1.57-.282-.336-.778-.504-1.489-.504-1.015 0-1.718.484-2.109 1.453l.012 8.707h-3.387v-8.074c0-.735-.145-1.266-.434-1.594s-.781-.492-1.476-.492c-.961 0-1.656.398-2.086 1.195v8.965h-3.387v-12.68z" fill="#000"/><path d="m223.344 513.898 1.914-10.117h2.92l-3.155 14.219h-2.949l-2.314-9.512-2.315 9.512h-2.949l-3.154-14.219h2.92l1.924 10.098 2.343-10.098h2.481zm10.791 4.297c-1.55 0-2.813-.475-3.789-1.425-.97-.951-1.455-2.217-1.455-3.799v-.274c0-1.061.205-2.008.615-2.842.41-.839.989-1.484 1.738-1.933.755-.456 1.615-.684 2.578-.684 1.446 0 2.582.456 3.408 1.367.834.912 1.25 2.204 1.25 3.877v1.153h-6.728c.091.69.365 1.243.82 1.66.463.417 1.045.625 1.748.625 1.088 0 1.937-.394 2.549-1.182l1.387 1.553c-.423.599-.996 1.068-1.719 1.406-.723.332-1.523.498-2.402.498zm-.323-8.672c-.559 0-1.015.189-1.367.567-.345.377-.566.918-.664 1.621h3.926v-.225c-.013-.625-.182-1.106-.508-1.445-.325-.345-.788-.518-1.387-.518zm9.258 8.477h-2.832v-10.566h2.832zm-2.998-13.301c0-.423.14-.771.42-1.045.287-.273.674-.41 1.162-.41.482 0 .866.137 1.153.41.286.274.429.622.429 1.045 0 .43-.146.781-.439 1.055-.287.273-.667.41-1.143.41-.475 0-.859-.137-1.152-.41-.287-.274-.43-.625-.43-1.055zm4.922 7.94c0-1.621.384-2.927 1.152-3.916.775-.99 1.817-1.485 3.125-1.485 1.159 0 2.061.397 2.706 1.192l.117-.996h2.558v10.214c0 .925-.211 1.729-.634 2.413-.417.683-1.006 1.204-1.768 1.562s-1.654.537-2.676.537c-.775 0-1.53-.156-2.265-.469-.736-.306-1.293-.703-1.67-1.191l1.25-1.719c.703.788 1.556 1.182 2.558 1.182.749 0 1.332-.202 1.748-.606.417-.397.625-.963.625-1.699v-.566c-.651.735-1.507 1.103-2.568 1.103-1.27 0-2.298-.494-3.086-1.484-.781-.996-1.172-2.315-1.172-3.955zm2.822.205c0 .957.192 1.709.577 2.256.384.54.911.81 1.582.81.859 0 1.474-.322 1.845-.967v-4.443c-.377-.645-.986-.967-1.826-.967-.677 0-1.211.277-1.601.83-.385.554-.577 1.38-.577 2.481zm11.768-4.258c.749-.898 1.689-1.348 2.822-1.348 2.292 0 3.454 1.332 3.487 3.994v6.768h-2.823v-6.689c0-.606-.13-1.052-.39-1.338-.261-.293-.694-.44-1.299-.44-.827 0-1.426.319-1.797.957v7.51h-2.822v-15h2.822zm11.816-3.75v2.598h1.807v2.07h-1.807v5.273c0 .391.075.671.225.84s.436.254.859.254c.313 0 .59-.023.83-.068v2.138c-.553.17-1.123.254-1.709.254-1.979 0-2.988-.999-3.027-2.998v-5.693h-1.543v-2.07h1.543v-2.598z" fill="#b7b7b7"/><path d="m221.348 530.762v2.789h-.328c-1.532.023-2.766.422-3.704 1.195-.929.774-1.488 1.848-1.675 3.223.906-.922 2.05-1.383 3.433-1.383 1.485 0 2.664.531 3.539 1.594.875 1.062 1.313 2.461 1.313 4.195 0 1.109-.242 2.113-.727 3.012-.476.898-1.156 1.597-2.039 2.097-.875.5-1.867.75-2.976.75-1.797 0-3.25-.625-4.36-1.875-1.101-1.25-1.652-2.918-1.652-5.004v-1.218c0-1.852.348-3.485 1.043-4.899.703-1.422 1.707-2.519 3.012-3.293 1.312-.781 2.832-1.175 4.558-1.183zm-3.305 8.543c-.547 0-1.043.144-1.488.433-.446.282-.774.657-.985 1.125v1.032c0 1.132.223 2.019.668 2.66.446.633 1.071.949 1.875.949.727 0 1.313-.285 1.758-.856.453-.578.68-1.324.68-2.238 0-.93-.227-1.68-.68-2.25s-1.062-.855-1.828-.855zm8.215 7.031c0-.539.18-.977.539-1.313.367-.335.824-.503 1.371-.503.555 0 1.012.168 1.371.503.367.336.551.774.551 1.313 0 .531-.18.965-.539 1.301-.36.328-.821.492-1.383.492-.555 0-1.012-.164-1.371-.492-.359-.336-.539-.77-.539-1.301zm14.59-5.156c-.883.867-1.914 1.3-3.094 1.3-1.508 0-2.715-.515-3.621-1.546-.906-1.039-1.36-2.438-1.36-4.196 0-1.117.243-2.14.727-3.07.492-.938 1.176-1.664 2.051-2.18.875-.523 1.859-.785 2.953-.785 1.125 0 2.125.281 3 .844.875.562 1.555 1.371 2.039 2.426.484 1.054.73 2.261.738 3.621v1.254c0 2.843-.707 5.078-2.121 6.703s-3.418 2.492-6.012 2.601l-.832.012v-2.824l.75-.012c2.946-.133 4.539-1.516 4.782-4.148zm-2.262-1.289c.547 0 1.016-.141 1.406-.422.399-.281.699-.621.903-1.02v-1.394c0-1.149-.219-2.039-.657-2.672-.437-.633-1.023-.949-1.758-.949-.679 0-1.238.312-1.675.937-.438.617-.657 1.395-.657 2.332 0 .93.211 1.695.633 2.297.43.594 1.031.891 1.805.891zm18.844 3.023-1.219 1.219v3.867h-3.387v-18h3.387v9.973l.656-.844 3.246-3.809h4.067l-4.582 5.285 4.98 7.395h-3.89zm7.488-1.348c0-1.945.461-3.511 1.383-4.699.929-1.187 2.179-1.781 3.75-1.781 1.39 0 2.472.476 3.246 1.43l.141-1.196h3.07v12.258c0 1.11-.254 2.074-.762 2.895-.5.82-1.207 1.445-2.121 1.875-.914.429-1.984.644-3.211.644-.93 0-1.836-.187-2.719-.562-.883-.368-1.55-.844-2.004-1.43l1.5-2.062c.844.945 1.868 1.417 3.071 1.417.898 0 1.597-.242 2.097-.726.5-.477.75-1.156.75-2.039v-.68c-.781.883-1.808 1.324-3.082 1.324-1.523 0-2.757-.593-3.703-1.781-.937-1.195-1.406-2.777-1.406-4.746zm3.387.246c0 1.149.23 2.051.691 2.708.461.648 1.094.972 1.899.972 1.031 0 1.769-.387 2.214-1.16v-5.332c-.453-.773-1.183-1.16-2.191-1.16-.813 0-1.453.332-1.922.996-.461.664-.691 1.656-.691 2.976z" fill="#000"/><path d="m246.714 250.857-116.344 90.067c-1.199.134-2.98-.166-5.345-.899-2.964-.932-5.778-2.314-8.442-4.146-7.593-5.195-12.189-12.655-13.787-22.379-1.566-9.325-.134-19.333 4.296-30.023 1.465-3.53 3.263-7.177 5.395-10.94l3.896-6.544c3.164-5.628 5.778-11.19 7.843-16.685 3.43-9.191 4.363-15.985 2.797-20.381l1.599.2c1.199.233 2.165.666 2.897 1.299-.1-1.066-.383-2.315-.849-3.747-.966-2.93-2.348-5.395-4.146-7.393l5.395-.749c4.562.033 9.191 1.332 13.887 3.896l-.35-2.747c-.133-1.865.05-2.898.55-3.098.766-.299 1.865.433 3.297 2.198.033-1.465.35-3.13.949-4.995 1.166-3.663 3.131-6.427 5.895-8.292l2.747 5.045c2.564 3.63 5.695 6.144 9.392 7.543 3.23 1.266 10.556 2.231 21.979 2.897 11.057.666 18.85 2.032 23.379 4.097l4.795.399c3.897.5 7.494 1.416 10.791 2.748 10.623 4.296 16.451 11.839 17.484 22.629z" fill="#68ae28"/><path d="m106.242 323.291c-7.526-14.187-5.728-30.489 5.395-48.906-5.628 14.887-3.729 26.792 5.695 35.718 4.097 3.863 9.258 6.694 15.486 8.492 6.094 1.732 12.555 2.298 19.382 1.698l-23.278 21.031c-3.397-.3-7.177-1.948-11.34-4.945-4.762-3.497-8.542-7.86-11.34-13.088z" fill="#56931f"/><path d="m292.372 244.263c2.964 1.299 5.545 5.711 7.743 13.238 1.964 6.827 2.631 11.656 1.998 14.487 3.929 4.562 7.759 13.471 11.489 26.725 4.23 14.853 4.946 25.66 2.148 32.42-.899 2.165-3.53 5.112-7.893 8.842-4.529 3.93-9.008 6.961-13.437 9.092l2.248 3.647c1.798 3.197 3.413 6.643 4.845 10.34 4.563 11.922 6.461 24.278 5.695 37.066-.233 4.063-3.597 7.393-10.091 9.991-6.36 2.498-13.138 3.33-20.331 2.498-2.431-.333-5.645-3.181-9.641-8.543-4.563-6.227-7.277-12.688-8.143-19.382-6.094 3.53-11.239 5.911-15.436 7.144l-1.298 2.198c-1.133 1.798-2.465 3.463-3.997 4.995-4.829 4.929-10.54 7.676-17.134 8.243-6.561.566-11.656.049-15.286-1.549-1.132-.5-2.065-1.082-2.797-1.748l-.7-.85-39.913 1.349-4.096 3.597c-3.664 2.431-7.893 3.713-12.689 3.846-6.56.2-11.722-.399-15.486-1.798-4.729-1.798-8.092-5.079-10.09-9.841-2.898-6.86-4.43-14.72-4.596-23.578-.233-11.523 2.348-20.948 7.743-28.274 5.195-7.061 11.972-14.254 20.331-21.581 2.331-2.031 8.676-7.193 19.033-15.485 5.295-4.197 10.007-8.26 14.137-12.189 4.196-3.997 6.744-6.861 7.643-8.592.966-6.628 2.231-13.355 3.796-20.182 3.164-13.654 6.228-20.947 9.192-21.88 2.964-.899 7.326.05 13.088 2.848 2.864 1.432 5.428 2.93 7.693 4.495l3.397-1.198c2.997-.9 6.277-1.666 9.841-2.298 11.389-1.965 23.478-2.082 36.266-.35 1.932-2.065 6.195-4.063 12.789-5.995 6.36-1.864 10.34-2.447 11.939-1.748z" fill="#7cbeb3"/><path d="m301.413 264.145.999 7.843-5.145-7.643c.533-2.232.766-5.246.7-9.042l-.3-4.995c1.532 3.296 2.781 7.909 3.746 13.837z" fill="#68a198"/><path d="m187.018 272.987c2.698-12.389 5.345-19.549 7.943-21.481-.633 7.194-.849 14.304-.649 21.331.133 4.129.566 10.424 1.298 18.883.433 5.028-.083 9.491-1.548 13.387-1.299 3.397-2.997 5.712-5.095 6.944-2.065 1.199-3.764.932-5.096-.799-1.432-1.899-1.915-5.162-1.448-9.791.932-9.225 2.464-18.717 4.595-28.474z" fill="#68a198"/><path d="m277.186 399.97c2.564 4.796 5.628 7.793 9.191 8.992l-1.898 3.796c-5.029 1-9.475-.316-13.338-3.946-4.629-4.429-8.725-12.472-12.289-24.128-5.761 3.497-12.155 6.111-19.182 7.843-6.927 1.732-15.253 2.781-24.977 3.147-1.532.5-2.648 1.565-3.347 3.197-.699 1.565-.716 2.981-.05 4.246l-2.797 3.297-5.995-3.646c.167-1.133 1.099-4.513 2.798-10.141 1.665-5.395 2.714-10.074 3.147-14.037 1.265-11.856-2.032-22.579-9.891-32.171 6.993 7.027 19.249 11.44 36.766 13.238 18.716 1.898 34.618.2 47.706-5.095-4.196 2.697-7.193 6.894-8.992 12.588-1.598 5.129-2.081 10.807-1.448 17.035.633 5.994 2.165 11.256 4.596 15.785z" fill="#68a198"/><path d="m114.984 371.297c1.432 11.689 7.827 19.199 19.183 22.529 4.362 1.265 8.958 1.732 13.787 1.399 4.396-.3 8.009-1.166 10.84-2.598l3.647 12.289c-2.598 2.531-6.095 4.512-10.49 5.944-8.792 2.864-17.634 1.615-26.526-3.746-4.296-2.598-7.377-9.192-9.242-19.782-.599-3.564-.999-7.177-1.199-10.84-.166-3.064-.166-4.796 0-5.195z" fill="#68a198"/><path d="m221.936 289.871c1.299-.233 2.681-.016 4.146.65-5.028 3.863-7.659 9.791-7.892 17.783-.233 7.294 1.432 14.137 4.995 20.531-6.993-.766-11.922-2.364-14.786-4.795-.833-.733-1.183-2.781-1.049-6.145.133-3.496.749-7.16 1.848-10.989 2.864-10.191 7.11-15.869 12.738-17.035z" fill="#fff"/><path d="m239.22 308.904c1.566 4.196 2.531 7.976 2.898 11.339.399 3.597 0 5.995-1.199 7.194-.799.799-2.947 1.349-6.444 1.648-3.564.267-7.327.183-11.29-.25-3.563-6.394-5.228-13.237-4.995-20.531.233-7.992 2.864-13.92 7.892-17.783 4.963 2.298 9.342 8.425 13.138 18.383z" fill="#d60040"/><path d="m297.717 287.374c4.163 3.396 6.644 8.475 7.443 15.236.499 4.229.3 10.174-.6 17.833-1.465.566-2.88.949-4.246 1.149-1.398.233-2.447.233-3.147 0-1.965-.633-2.947-5.661-2.947-15.086-.033-9.625 1.132-16.002 3.497-19.132z" fill="#d60040"/><path d="m297.717 287.373c.599-.832 1.232-1.315 1.898-1.448 3.23-.7 6.361 3.247 9.391 11.839 2.964 8.525 3.547 14.62 1.749 18.283-.833 1.732-2.898 3.197-6.195 4.396.9-7.659 1.099-13.604.6-17.833-.799-6.761-3.28-11.84-7.443-15.237z" fill="#fff"/><path d="m268.394 282.278c-.966.367-3.48-.649-7.543-3.047-4.263-2.464-6.311-4.479-6.145-6.044.233-2.065 3.68-4.913 10.341-8.543 6.76-3.663 11.256-5.012 13.487-4.046 1.432.6.683 4.13-2.248 10.59-2.964 6.494-5.594 10.191-7.892 11.09z" fill="#006359"/><path d="m246.164 286.574c-.1-.433.4-1.249 1.499-2.448 1.132-1.232 2.148-1.964 3.047-2.198l1.099 1.549c.932 1.565 1.865 3.763 2.797 6.594l-.649 1.549c-.633 1.132-1.415 1.915-2.348 2.347l-2.398-2.297c-1.665-1.832-2.681-3.531-3.047-5.096z" fill="#006359"/><path d="m284.779 297.464c1.032 5.895 1.115 9.192.249 9.891-.766.633-3.097.383-6.993-.749-3.93-1.132-6.161-2.231-6.694-3.297.166-2.465 1.432-5.545 3.796-9.242 2.432-3.696 4.396-5.545 5.895-5.545 1.465 0 2.714 2.981 3.747 8.942z" fill="#006359"/><path d="m287.776 384.335c-.133-1.899 1.032-4.613 3.497-8.143 2.397-3.463 4.129-5.129 5.195-4.995 1.598.166 2.697 3.513 3.297 10.04.566 6.561.05 10.108-1.549 10.641-1.765.599-3.879.266-6.344-.999-2.831-1.499-4.196-3.68-4.096-6.544z" fill="#006359"/><path d="m129.421 356.26 8.243.35c3.696.733 5.828 1.549 6.394 2.448.932 1.498.316 4.662-1.849 9.491-2.131 4.796-3.929 7.26-5.395 7.393-1.265.1-3.829-1.165-7.693-3.796-3.896-2.631-5.828-4.463-5.794-5.495.033-1.332.682-3.231 1.948-5.695 1.399-2.764 2.781-4.329 4.146-4.696z" fill="#006359"/><path d="m176.928 313.45c.865 1.498-.533 5.661-4.197 12.488-3.663 6.827-6.477 10.457-8.442 10.89-1.798.433-4.729-.35-8.792-2.348-3.83-1.831-6.377-3.513-7.643-5.045-.399-.5-.133-1.965.8-4.396l1.498-3.547 6.694-5.295c4.529-3.563 7.06-5.412 7.593-5.545l6.244.55c3.664.632 5.745 1.382 6.245 2.248z" fill="#006359"/><path d="m227.631 295.566c1.066 0 1.998 1.049 2.798 3.147.799 2.231 1.182 5.012 1.148 8.342-.066 3.164-.499 5.662-1.298 7.494-.733 1.665-1.632 2.497-2.698 2.497-.999 0-1.865-.899-2.597-2.697-.8-1.899-1.233-4.296-1.299-7.194-.134-3.496.233-6.344 1.099-8.542.766-2.031 1.715-3.047 2.847-3.047z" fill="#fff"/><path d="m295.369 296.665.999-4.496c.4-.533.783-.783 1.149-.749.599.033 1.166.682 1.698 1.948.766 1.698 1.183 4.096 1.249 7.193.034 2.931-.233 5.212-.799 6.844-.533 1.465-1.199 2.198-1.998 2.198-.5 0-.999-.366-1.499-1.099-.533-.799-.899-1.848-1.099-3.147-.399-2.298-.3-5.195.3-8.692z" fill="#fff"/><g fill="#0d131a"><path d="m274.088 254.304c-9.125-1.765-18.366-2.448-27.724-2.048-10.058.399-19.299 2.031-27.725 4.895-.299.1-.716-.233-1.249-.999-.566-.766-.699-1.215-.399-1.349 9.558-3.23 19.915-4.962 31.071-5.195 9.791-.233 18.733.683 26.826 2.748 4.129 1.065 6.094 1.848 5.894 2.347z"/><path d="m301.064 268.241c6.76 9.791 11.689 21.147 14.786 34.069 2.698 11.256 3.364 19.965 1.998 26.126-1.498 6.827-8.958 13.82-22.379 20.981-13.321 7.126-26.193 11.073-38.615 11.839-13.288.799-25.793-.3-37.515-3.297-11.723-2.998-19.283-7.044-22.68-12.139-1.098-1.665-1.448-2.681-1.049-3.047.433-.367 1.416.283 2.948 1.948 4.496 4.929 12.505 8.692 24.028 11.29 10.956 2.464 22.396 3.33 34.318 2.597 12.455-.766 25.027-4.679 37.716-11.739 12.188-6.794 18.949-13.221 20.281-19.282 1.399-6.295.816-14.787-1.748-25.477-2.864-11.956-7.444-22.713-13.738-32.27-2.597-3.963-3.613-6.161-3.047-6.594.533-.433 2.098 1.232 4.696 4.995z"/><path d="m185.32 291.12c-2.198 4.13-6.644 9.042-13.338 14.737-3.996 3.363-10.723 8.692-20.181 15.985-8.626 6.86-15.286 12.905-19.982 18.133-6.461 7.194-10.757 14.27-12.888 21.231-2.565 8.359-2.698 17.75-.4 28.174 2.132 9.824 5.162 15.885 9.092 18.183 4.229 2.465 9.924 3.547 17.084 3.247 7.393-.299 12.505-2.031 15.336-5.195 4.363-4.895 6.061-12.822 5.095-23.778-.999-11.19-4.396-20.115-10.19-26.776-2.265-2.631-3.231-4.229-2.898-4.795s1.749.483 4.247 3.147c7.293 7.826 11.356 17.401 12.188 28.724.766 10.756-1.482 19.082-6.743 24.977-3.164 3.563-8.859 5.561-17.085 5.994-7.959.433-14.27-.716-18.932-3.447-4.729-2.764-8.193-9.291-10.391-19.582-2.231-10.59-2.015-20.381.65-29.373 2.031-6.794 6.044-13.604 12.038-20.431 4.363-4.995 10.674-10.84 18.933-17.534l20.481-16.585c7.394-6.361 12.905-12.205 16.535-17.534.167-.233.466.05.899.85.467.832.616 1.382.45 1.648z"/><path d="m197.559 247.011c2.064-.667 5.545 0 10.44 1.998 4.929 2.031 8.975 4.512 12.139 7.443 2.498 2.331 3.463 3.647 2.897 3.946-.533.333-2.064-.483-4.595-2.448-3.264-2.464-7.044-4.545-11.34-6.244-4.196-1.698-7.01-2.298-8.442-1.798-2.332.766-5.029 6.677-8.093 17.734-3.23 11.689-5.328 23.944-6.294 36.766-.267 3.696-.733 5.395-1.399 5.095-.699-.3-.982-2.048-.849-5.245.433-11.09 2.098-22.696 4.995-34.818 3.297-13.721 6.811-21.197 10.541-22.429z"/><path d="m266.046 251.307c2.897-2.198 7.343-4.296 13.338-6.295 6.76-2.264 11.456-2.797 14.087-1.598 2.597 1.165 4.962 5.079 7.093 11.739 1.965 6.194 3.064 12.422 3.297 18.683 0 .3-.416-.017-1.249-.949-.866-.933-1.299-1.565-1.299-1.898-.199-5.062-1.365-10.391-3.496-15.986-2.032-5.328-3.913-8.392-5.645-9.191-1.632-.733-5.362-.267-11.19 1.398-5.894 1.665-10.091 3.447-12.588 5.345-.233.2-.75.1-1.549-.299-.766-.433-1.032-.75-.799-.949z"/><path d="m267.894 280.879c1.632-.033 3.913-3.147 6.844-9.341 2.897-6.094 3.98-9.325 3.247-9.691-1.632-.833-5.678.383-12.139 3.647-6.494 3.263-9.758 5.778-9.791 7.543-.033 1.099 1.399 2.647 4.296 4.645 2.964 1.999 5.478 3.064 7.543 3.197zm-3.996-16.734c7.093-3.83 12.155-5.462 15.186-4.896 1.032.2 1.332 1.566.899 4.097-.4 2.331-1.299 5.062-2.697 8.192-3.497 7.793-6.628 11.623-9.392 11.489-2.198-.133-5.128-1.398-8.792-3.796-3.83-2.498-5.745-4.612-5.745-6.344 0-2.032 3.514-4.946 10.541-8.742z"/><path d="m253.607 290.371c.1-.267-.266-1.499-1.099-3.697-.832-2.231-1.432-3.363-1.798-3.397-.3-.033-.966.417-1.998 1.349-1.033.933-1.549 1.632-1.549 2.098.033.433.733 1.565 2.098 3.397 1.366 1.765 2.165 2.648 2.398 2.648.2 0 .55-.333 1.049-1zm.1-5.245c1.033 2.464 1.565 4.146 1.599 5.045.033.733-.5 1.732-1.599 2.997-1.132 1.299-1.981 1.815-2.548 1.549-.666-.3-1.815-1.532-3.446-3.697-1.765-2.298-2.581-3.88-2.448-4.745.133-.9.916-2.032 2.348-3.397 1.432-1.299 2.514-1.932 3.247-1.899.766.067 1.715 1.449 2.847 4.147z"/><path d="m280.682 289.971c-1.032-.066-2.73 1.882-5.095 5.845-2.298 3.929-3.314 6.277-3.047 7.043.266.7 2.148 1.549 5.645 2.548 3.53.999 5.545 1.265 6.044.799.766-.732.616-3.613-.449-8.642-1.066-4.995-2.099-7.526-3.098-7.593zm-6.793 4.196c2.897-4.995 5.178-7.41 6.843-7.243 2.098.2 3.78 3.663 5.046 10.39 1.232 6.694 1.132 10.391-.3 11.09-1.232.633-3.946.25-8.143-1.149-4.129-1.365-6.394-2.531-6.793-3.497-.633-1.432.483-4.629 3.347-9.591z"/><path d="m210.397 299.912c3.896-7.893 8.076-11.589 12.538-11.09 6.295.733 11.706 6.045 16.235 15.936 1.899 4.196 3.148 8.342 3.747 12.438.633 4.263.416 7.66-.649 10.191-.567 1.399-2.698 2.331-6.394 2.797-3.397.4-7.344.367-11.84-.1-4.529-.466-8.392-1.282-11.589-2.447-3.53-1.233-5.445-2.648-5.745-4.247-1.498-7.593-.266-15.419 3.697-23.478zm23.478.699c-3.496-5.928-7.226-9.108-11.189-9.541-1.566-.166-3.264.699-5.096 2.598-2.764 2.864-4.995 6.993-6.694 12.388-1.798 5.862-2.331 11.473-1.598 16.835.266 2.065 5.245 3.63 14.936 4.696 9.691 1.099 14.953.682 15.786-1.249.866-2.098.716-5.762-.45-10.99-1.232-5.462-3.13-10.374-5.695-14.737z"/><path d="m307.458 296.615c-2.498-6.194-5.012-9.291-7.543-9.291-2.232 0-3.597 5.278-4.096 15.835-.5 10.49.133 16.252 1.898 17.284 1.165.666 3.363.3 6.594-1.099 3.23-1.399 4.978-2.714 5.245-3.946 1.299-5.895.599-12.156-2.098-18.783zm-13.987 5.695c.566-11.523 2.714-17.284 6.444-17.284 3.23 0 6.361 3.447 9.391 10.34 3.164 7.26 4.046 14.037 2.648 20.332-.5 2.131-2.964 4.029-7.394 5.694-4.296 1.632-7.026 1.949-8.192.949-1.099-.899-1.915-3.363-2.448-7.393-.533-3.863-.682-8.076-.449-12.638z"/><path d="m163.89 309.703 8.742.55c3.396.599 5.345 1.382 5.844 2.347.899 1.832-.732 6.528-4.895 14.087-4.163 7.627-7.344 11.44-9.542 11.44-2.098 0-5.528-1.049-10.29-3.147-5.029-2.198-7.543-3.997-7.543-5.395 0-.8.366-1.998 1.099-3.597l2.398-4.696c.166-.266.616-.433 1.348-.499.766-.033 1.066.083.9.35-.9 1.665-1.616 3.28-2.149 4.845-.466 1.365-.699 2.348-.699 2.947.133.9 2.281 2.282 6.444 4.147 4.063 1.831 6.877 2.764 8.442 2.797 1.466-.466 3.864-3.863 7.194-10.191 3.33-6.327 4.762-10.19 4.296-11.589-.267-.566-1.699-1.099-4.296-1.599l-7.743-.549c-.333.033-.416-.333-.25-1.099.167-.733.4-1.116.7-1.149z"/><path d="m129.871 357.159c-1.033.5-2.215 1.882-3.547 4.147-1.332 2.231-1.948 3.78-1.848 4.645.133.9 1.898 2.548 5.295 4.946s5.595 3.53 6.594 3.397 2.547-2.431 4.646-6.894c2.098-4.462 2.88-6.977 2.347-7.543-.599-.599-2.78-1.299-6.544-2.098-3.829-.799-6.144-.999-6.943-.6zm-5.545 2.848c1.565-2.598 3.047-4.263 4.446-4.996l8.642.4c4.795.899 7.593 1.982 8.392 3.247.733 1.166-.1 4.429-2.498 9.791-2.397 5.329-4.362 8.276-5.894 8.842-1.166.466-3.913-.816-8.243-3.846-4.396-3.064-6.71-5.462-6.943-7.194-.167-1.498.533-3.58 2.098-6.244z"/><path d="m288.875 384.235v.05c.066 2.764 1.415 4.779 4.046 6.044 2.365 1.132 3.963 1.316 4.796.55.866-.8 1.165-3.83.899-9.092-.266-5.362-1.049-8.342-2.348-8.942-.699-.3-2.115 1.199-4.246 4.496-2.098 3.297-3.147 5.595-3.147 6.894zm1.449-8.592c2.564-4.097 4.545-6.128 5.944-6.095 2.265.033 3.68 3.647 4.246 10.84.566 7.06.1 11.14-1.399 12.239-1.232.932-3.48.766-6.743-.5-3.73-1.465-5.645-3.913-5.745-7.343-.033-2.065 1.199-5.112 3.697-9.141z"/><path d="m312.253 326.088c-.033 1.299-.216 2.364-.549 3.197l-.999 1.649c-1.632 1.931-5.528 4.362-11.689 7.293-6.361 3.03-11.873 5.012-16.535 5.944-8.492 1.732-21.531 1.882-39.114.45-17.584-1.399-28.691-3.497-33.32-6.294-.766-.5-1.465-1.316-2.098-2.448-.566-.966-.982-2.031-1.249-3.197-.499-2.098-.533-3.28-.1-3.547.433-.266 1.116.7 2.048 2.898.567 1.298 1.166 2.297 1.799 2.997l1.998 1.498c3.73 2.032 13.704 3.83 29.923 5.395 17.55 1.699 30.771 1.649 39.663-.149 3.996-.833 8.742-2.448 14.237-4.846 5.095-2.231 8.909-4.263 11.44-6.094.932-.7 1.615-1.416 2.048-2.148.466-.766.766-1.699.899-2.798.233-1.998.566-2.93.999-2.797.433.166.633 1.165.599 2.997z"/><path d="m236.523 285.076c1.166 1.065 2.298 2.364 3.397 3.896 1.165 1.599 1.998 3.047 2.498 4.346.732 1.865.765 2.914.099 3.147-.699.2-1.482-.533-2.347-2.198-1.432-2.831-3.181-5.395-5.246-7.693-1.931-2.231-2.697-3.53-2.298-3.896.433-.367 1.732.433 3.897 2.398z"/><path d="m292.821 285.425c-.632 1.832-1.032 3.797-1.199 5.895-.133 1.832-.549 2.731-1.248 2.697-.7 0-1-.899-.9-2.697.1-2.198.666-4.363 1.699-6.494.932-1.898 1.615-2.798 2.048-2.698.4.134.266 1.233-.4 3.297z"/><path d="m270.891 337.777c-.732-.366-1.315-.832-1.748-1.398-.433-.533-.583-.916-.45-1.149l1.549.05c.966.199 1.682.516 2.148.949.599.599.716 1.115.35 1.548-.367.433-.983.433-1.849 0z"/><path d="m287.926 335.28c-.7.865-1.332 1.165-1.899.899-.566-.267-.599-.816-.099-1.649.366-.599.949-1.132 1.748-1.598.733-.467 1.199-.616 1.399-.45.133.133.1.483-.1 1.049z"/><path d="m227.881 290.77c.3.1.433.583.399 1.449-.033.866-.183 1.216-.449 1.049-1.699-1.066-3.297-.25-4.796 2.448-1.398 2.464-2.364 5.878-2.897 10.24-.566 4.496-.5 8.692.2 12.589.832 4.429 2.381 7.593 4.646 9.491.266.2.099.5-.5.899-.599.367-1.032.45-1.299.25-2.731-2.031-4.612-5.395-5.645-10.091-.899-4.229-.999-8.758-.299-13.587.699-4.762 1.981-8.559 3.846-11.39 2.032-3.03 4.296-4.146 6.794-3.347z"/><path d="m296.868 287.773c1.165-.899 2.514-.516 4.046 1.149 1.532 1.632 2.847 4.063 3.946 7.293 2.731 8.093 2.848 16.052.35 23.878-.1.3-.483.517-1.149.65-.666.1-.966 0-.899-.3 2.031-6.327 2.098-13.504.2-21.53-.766-3.23-1.716-5.778-2.848-7.643-1.132-1.898-2.164-2.598-3.097-2.098-.266.166-.483.017-.649-.45-.167-.433-.134-.749.1-.949z"/><path d="m293.171 349.816c-.167-.266.183-.666 1.049-1.199.833-.566 1.315-.716 1.449-.449 9.458 15.286 13.67 33.119 12.638 53.501-.1 1.898-1.549 3.863-4.346 5.894-2.664 1.932-5.961 3.547-9.891 4.846-9.524 3.13-16.685 3.014-21.48-.35-3.164-2.231-6.444-6.494-9.841-12.788-3.264-6.028-4.929-10.607-4.996-13.738 0-.299.467-.632 1.399-.999l1.349-.15c.067 3.098 1.615 7.477 4.646 13.138 3.23 6.028 6.477 10.191 9.741 12.489 4.163 2.897 10.44 2.981 18.832.25 3.397-1.099 6.261-2.465 8.593-4.096 2.431-1.666 3.68-3.198 3.746-4.596.966-19.049-3.33-36.3-12.888-51.753z"/><path d="m265.247 381.487c-8.626 6.761-18.916 11.34-30.872 13.738-11.09 2.198-20.998 2.081-29.723-.35-.3-.1-.35-.616-.15-1.549.167-.899.4-1.315.7-1.249 8.558 2.398 18.133 2.548 28.723.45 10.757-2.131 20.515-6.178 29.273-12.139 3.331-2.264 5.179-3.164 5.545-2.697.333.433-.832 1.698-3.496 3.796z"/><path d="m241.918 391.578c.166-.267.932-.5 2.298-.699l1.798.149c-2.597 4.263-5.811 7.976-9.641 11.14-4.396 3.63-8.709 5.712-12.938 6.244l-14.986-.449c-3.93-.966-6.245-2.431-6.944-4.396-.1-.3.15-.799.749-1.499.566-.732.9-.949.999-.649.666 1.865 2.715 3.264 6.145 4.196 3.73 1.032 8.309 1.216 13.737.55 3.164-.4 6.511-1.982 10.041-4.746 3.497-2.731 6.411-6.011 8.742-9.841z"/><path d="m125.675 227.978c.266-.2.915-.2 1.948 0 1.598.3 2.997 1.016 4.196 2.148.266.2.283.516.05.949-.2.4-.433.5-.699.3-.7-.6-1.382-.999-2.049-1.199l-.949-.05.2 1.599.3 2.997c.1 4.529-1.382 10.457-4.446 17.783-2.398 5.828-5.478 11.856-9.242 18.084-11.855 19.682-14.47 36.666-7.842 50.953 2.497 5.395 6.077 9.808 10.74 13.238 4.129 2.997 8.092 4.629 11.889 4.896.3.033.25.416-.15 1.148-.366.766-.716 1.133-1.049 1.099-4.429-.299-8.859-2.048-13.288-5.245-4.929-3.596-8.675-8.259-11.24-13.987-6.6601-14.853-3.779-32.553 8.643-53.101 5.861-9.725 9.84-17.717 11.939-23.978 2.231-6.627 2.597-12.006 1.099-16.135-.3-.766-.317-1.266-.05-1.499z"/><path d="m151.551 226.23c.233.233.233.599 0 1.099-.233.532-.466.682-.699.449-2.498-2.597-5.745-4.679-9.742-6.244-3.763-1.432-7.143-2.065-10.14-1.898-1.399.1-2.148.283-2.248.549-.1.233.233.949.999 2.148 3.63 5.728 3.73 14.187.3 25.377-1.865 5.994-4.779 13.454-8.742 22.379-5.862 15.42-6.328 29.174-1.399 41.262 2.031 4.996 4.845 9.225 8.442 12.689 3.33 3.23 6.927 5.412 10.79 6.544.267.066.067.399-.599.999-.666.566-1.149.816-1.449.749-10.224-2.997-17.234-10.623-21.031-22.879-3.963-12.688-2.997-26.209 2.898-40.563l4.396-9.94c2.098-4.863 3.68-9.109 4.745-12.739 3.264-10.923 2.881-18.966-1.149-24.128-1.365-1.765-1.998-2.897-1.898-3.396.1-.567 1.099-.966 2.997-1.199 3.564-.467 7.56.083 11.989 1.648 4.696 1.665 8.543 4.03 11.54 7.094z"/><path d="m148.054 216.588 1.848 1.499c.2.233.15.716-.149 1.449-.3.699-.55.932-.75.699l-1.049-1.249c-.599-.599-1.049-.832-1.349-.699-.266.133-.366.566-.299 1.299l.449 2.847c.067.266-.2.4-.799.4-.599-.034-.916-.2-.949-.5l-.5-3.097c-.133-1.698.134-2.814.8-3.347.566-.433 1.482-.2 2.747.699z"/><path d="m224.684 230.676c7.16 5.761 10.923 12.721 11.289 20.88.034.333-.399.583-1.298.75-.9.199-1.349.133-1.349-.2-.333-7.46-3.697-13.904-10.091-19.332-7.693-6.528-18.45-10.041-32.27-10.541-11.823-.433-20.282-1.748-25.377-3.946-4.13-1.765-7.11-4.746-8.942-8.942-.399-.899-.732-1.382-.999-1.449-.3-.099-.783.234-1.449.999-2.231 2.465-3.546 5.479-3.946 9.042-.4 3.664.366 6.511 2.298 8.542 3.896 3.997 6.977 8.709 9.241 14.137 1.399 3.364 3.098 8.975 5.096 16.835 2.431 9.558 5.112 16.668 8.042 21.33 2.365 3.764 5.828 7.16 10.391 10.191.2.1.066.583-.4 1.449-.433.832-.782 1.165-1.049.999-5.861-3.863-10.074-7.96-12.638-12.289-2.365-3.996-4.646-10.49-6.844-19.482-2.364-9.758-4.129-16.102-5.295-19.033-1.798-4.629-4.513-8.825-8.143-12.588-2.597-2.698-3.43-6.677-2.497-11.939.899-4.962 2.714-8.509 5.445-10.64 1.232-.966 2.098-1.399 2.597-1.299.5.1.983.799 1.449 2.098 1.998 5.195 4.862 8.625 8.592 10.29 4.196 1.832 12.355 2.981 24.478 3.447 14.253.5 25.476 4.063 33.669 10.691z"/><path d="m239.27 233.173c6.361 5.462 9.109 11.373 8.243 17.734-.033.3-.533.433-1.499.4-.966-.034-1.432-.2-1.399-.5.733-5.462-1.432-10.59-6.494-15.386-5.828-5.495-13.937-8.625-24.327-9.391-.333-.034-1.299-.433-2.898-1.199-1.631-.799-2.297-1.199-1.998-1.199 12.855 0 22.979 3.18 30.372 9.541z"/></g><path d="m160.393 361.905c1.798-7.027 4.312-12.289 7.543-15.785l37.016 10.79c3.23 12.322 3.547 24.061.949 35.217-1.565 6.628-4.013 12.539-7.343 17.734-1.799 2.831-5.462 4.696-10.99 5.595-5.828.966-11.44.383-16.835-1.748-3.929-1.532-7.01-5.279-9.241-11.24-2.065-5.428-3.181-11.939-3.347-19.532-.167-7.427.583-14.437 2.248-21.031z" fill="#7cbeb3"/><path d="m168.335 375.643c.2-2.032 2.648-4.779 7.344-8.243 4.695-3.463 7.676-4.712 8.942-3.746 1.298.965 1.548 6.227.749 15.785s-2.015 14.403-3.647 14.537c-.966.066-3.463-2.598-7.493-7.993-4.063-5.462-6.028-8.908-5.895-10.34z" fill="#006359"/><path d="m159.444 364.003c.166 14.287 3.38 26.193 9.641 35.717 5.994 9.225 13.487 14.304 22.479 15.236-3.663.933-7.626 1.233-11.889.9-8.525-.666-14.27-4.197-17.234-10.591-2.964-6.36-4.346-15.152-4.146-26.375z" fill="#68a198"/><path d="m165.788 351.615c-4.33 7.426-6.294 18.066-5.895 31.92.433 14.42 3.464 23.695 9.092 27.825 3.83 2.797 8.958 3.913 15.386 3.347 6.194-.566 10.29-2.265 12.288-5.096 4.53-6.427 7.494-14.187 8.892-23.278 1.266-8.193 1.099-15.986-.499-23.379-.799-3.696-.899-5.678-.3-5.944.6-.267 1.399 1.398 2.398 4.995 2.065 7.493 2.481 15.602 1.249 24.328-1.332 9.491-4.38 17.634-9.142 24.427-2.464 3.497-7.56 5.545-15.286 6.145-7.56.566-13.254-.55-17.084-3.347-2.764-2.032-5.046-5.628-6.844-10.79-1.732-4.929-2.781-10.591-3.147-16.985-.899-14.52 1.399-26.259 6.894-35.217 1.931-3.164 3.263-4.68 3.996-4.546.766.1.1 1.965-1.998 5.595z" fill="#0d131a"/><path d="m169.534 375.143c-.066 1.166 1.649 4.429 5.146 9.791 3.563 5.462 5.844 8.126 6.843 7.993 1.099-.167 1.999-4.679 2.698-13.538.699-8.892.533-13.704-.5-14.437-.965-.666-3.563.583-7.792 3.747-4.197 3.164-6.328 5.312-6.395 6.444zm-2.298-.5c.1-2.431 2.881-5.495 8.343-9.191 5.362-3.597 8.575-4.896 9.641-3.897 1.765 1.699 2.265 7.477 1.499 17.335-.8 9.857-2.215 15.369-4.247 16.534-1.398.833-4.312-1.798-8.741-7.892-4.43-6.061-6.594-10.358-6.495-12.889z" fill="#0d131a"/><path d="m129.571 409.961c-.166-.499.466-1.349 1.898-2.548 1.466-1.199 2.565-1.748 3.297-1.648 1.332.166 2.248 1.615 2.748 4.346.466 2.531.499 3.98.1 4.346-.467.433-1.765.166-3.897-.799-2.298-1.033-3.68-2.265-4.146-3.697z" fill="#fff"/><path d="m144.457 413.708c-2.331-1.066-3.496-2.132-3.496-3.197 0-.933.682-2.065 2.048-3.397 1.332-1.332 2.348-1.832 3.047-1.499 1.099.533 1.998 2.098 2.697 4.696.666 2.497.7 3.946.1 4.346-.632.433-2.098.116-4.396-.949z" fill="#fff"/><path d="m152.3 410.66c-.233-1.731.4-3.33 1.898-4.795l2.348-1.699c1.232.533 2.198 2.132 2.898 4.796.632 2.398.782 3.796.449 4.196l-3.946-.1c-2.331-.566-3.547-1.365-3.647-2.398z" fill="#fff"/><path d="m171.932 414.857c-.066-.866.233-1.799.899-2.798.8-1.199 1.815-1.782 3.048-1.748 1.232.033 2.181.499 2.847 1.398.533.833.766 1.849.699 3.048-.066 1.099-.449 2.331-1.149 3.696-.666 1.366-1.199 2.048-1.598 2.048-.433 0-1.299-.716-2.598-2.148-1.365-1.498-2.081-2.664-2.148-3.496z" fill="#fff"/><path d="m181.873 415.956c-.1-1.632.35-2.981 1.349-4.047.799-.899 1.598-1.349 2.398-1.349.599 0 1.298.45 2.098 1.349.799.933 1.298 1.865 1.498 2.798.134.599-.016 1.632-.449 3.097-.433 1.565-.949 2.498-1.549 2.797-.599.333-1.598-.033-2.997-1.099-1.499-1.099-2.281-2.281-2.348-3.546z" fill="#fff"/><path d="m191.714 415.656c-.932-.999-.849-2.515.25-4.546s2.181-2.897 3.247-2.598c.999.333 1.965 1.732 2.897 4.197.866 2.364 1.082 3.879.65 4.545-.4.6-1.432.733-3.098.4-1.698-.366-3.014-1.032-3.946-1.998z" fill="#fff"/><path d="m208.698 406.564c-.133-.699.517-1.565 1.949-2.597 1.398-1 2.414-1.366 3.047-1.099 1.099.499 1.815 1.898 2.148 4.196.333 2.231.2 3.48-.4 3.746-.599.267-1.781-.05-3.546-.949-1.899-.999-2.964-2.098-3.198-3.297z" fill="#fff"/><path d="m222.236 409.961c-2.031-.699-3.214-1.499-3.547-2.398-.299-.766.217-1.865 1.549-3.297 1.332-1.398 2.298-1.965 2.897-1.698 1.166.499 1.982 1.782 2.448 3.846.4 1.799.433 3.031.1 3.697z" fill="#fff"/><path d="m227.681 405.815c-.4-.799.167-1.948 1.698-3.447 1.499-1.465 2.581-2.065 3.247-1.798.766.333 1.516 1.548 2.248 3.646.7 2.065.883 3.331.55 3.797l-3.797-.1c-2.198-.533-3.513-1.232-3.946-2.098z" fill="#fff"/><path d="m284.329 413.508c-.466-.466-.1-1.665 1.099-3.597 1.199-1.965 2.215-2.931 3.047-2.897 1.099.066 2.331 1.265 3.697 3.596 1.299 2.198 1.798 3.497 1.498 3.897-.366.466-1.781.616-4.246.449-2.564-.166-4.262-.649-5.095-1.448z" fill="#fff"/><path d="m295.219 410.76c-.466-.499-.166-1.748.899-3.746 1.033-1.998 1.932-2.964 2.698-2.898.732.067 1.765 1.233 3.097 3.497 1.265 2.231 1.782 3.597 1.548 4.096-.299.5-1.515.683-3.646.55-2.265-.133-3.797-.633-4.596-1.499z" fill="#fff"/><path d="m303.561 406.165c-.532-.667-.366-1.932.5-3.797.833-1.798 1.499-2.664 1.998-2.598.866.1 1.932 1.199 3.197 3.297 1.232 2.065 1.699 3.364 1.399 3.897-.233.566-1.282.782-3.147.649-1.965-.133-3.281-.616-3.947-1.448z" fill="#fff"/><path d="m131.719 407.114 2.198 2.747c1.465 2.032 2.281 3.613 2.448 4.746l-3.497-1.799c-2.298-1.298-3.38-2.231-3.247-2.797s.533-1.216 1.199-1.948z" fill="#dbdcdc"/><path d="m142.959 407.313 1.898 2.348c1.332 1.865 2.215 3.547 2.648 5.046-4.097-1.432-6.195-2.848-6.295-4.246-.066-.866.2-1.649.8-2.348z" fill="#dbdcdc"/><path d="m158.644 413.508c-2.131-.466-3.663-.933-4.595-1.399-1.066-.499-1.666-1.116-1.799-1.848-.133-.633 0-1.366.4-2.198l.649-1.049c.899.433 1.998 1.498 3.297 3.197 1.099 1.465 1.782 2.564 2.048 3.297z" fill="#dbdcdc"/><path d="m173.93 411.36.5 3.047c.433 2.298.966 4.096 1.598 5.395l-1.898-1.648c-1.232-1.366-1.815-2.765-1.748-4.197.066-.999.316-1.731.749-2.198.333-.366.6-.499.799-.399z" fill="#dbdcdc"/><path d="m182.922 412.958 1.898 3.097 2.498 4.596c-.932-.3-1.865-.732-2.797-1.299-1.865-1.132-2.731-2.347-2.598-3.646.133-1.266.333-2.098.599-2.498z" fill="#dbdcdc"/><path d="m191.964 411.16 2.348 2.248c1.665 1.698 2.681 3.114 3.047 4.246l-3.097-.999c-2.065-.799-3.064-1.582-2.998-2.348l.4-2.248z" fill="#dbdcdc"/><path d="m210.347 404.316c.3.2.932.949 1.898 2.248 1.199 1.632 1.865 2.947 1.998 3.947l-3.596-1.699c-.933-.566-1.416-1.282-1.449-2.148-.033-.633.15-1.215.549-1.748z" fill="#dbdcdc"/><path d="m219.688 404.616 1.649 1.149c1.265 1.165 2.364 2.697 3.297 4.596l-2.698-.75c-1.831-.666-2.847-1.432-3.047-2.298-.2-.865-.133-1.565.2-2.098z" fill="#dbdcdc"/><path d="m229.08 402.618 2.048 1.498c1.465 1.299 2.464 2.648 2.997 4.047l-2.847-.4c-1.998-.499-3.181-1.249-3.547-2.248-.2-.466-.117-1.049.25-1.748.333-.666.699-1.049 1.099-1.149z" fill="#dbdcdc"/><path d="m285.628 409.661c2.797 1.332 5.045 2.998 6.744 4.996l-3.747.05c-2.498-.134-3.796-.633-3.896-1.499s.016-1.715.349-2.548z" fill="#dbdcdc"/><path d="m296.068 407.513c.566.167 1.516.666 2.848 1.499 1.798 1.099 2.914 2.148 3.347 3.147l-3.497-.15c-2.365-.266-3.564-.782-3.597-1.548-.067-.733.067-1.449.4-2.148z" fill="#dbdcdc"/><path d="m303.961 402.618 2.198 1.349c1.632 1.132 2.764 2.331 3.397 3.596l-2.598-.2c-1.798-.266-2.914-.716-3.347-1.348-.433-.633-.499-1.399-.199-2.298z" fill="#dbdcdc"/><path d="m283.38 413.808c-.266-.966.266-2.515 1.598-4.646 1.333-2.165 2.482-3.264 3.447-3.297.966-.034 2.315 1.232 4.047 3.796 1.698 2.498 2.431 4.196 2.198 5.096-.2.799-2.065 1.049-5.595.749s-5.429-.866-5.695-1.698zm3.247-3.897c-.833 1.332-1.166 2.298-.999 2.897.333.467 1.515.85 3.547 1.149 1.964.3 3.03.283 3.197-.05.166-.366-.283-1.432-1.349-3.197-1.132-1.798-2.015-2.714-2.648-2.747-.366-.033-.949.616-1.748 1.948z" fill="#0d131a"/><path d="m302.412 411.31c.2-.3-.233-1.366-1.298-3.197-1.033-1.832-1.815-2.798-2.348-2.898-.4-.033-.966.666-1.699 2.098-.766 1.432-1.082 2.432-.949 2.998.1.499 1.149.866 3.147 1.099zm-3.396-8.343c1.065.134 2.331 1.616 3.796 4.446 1.399 2.698 1.948 4.363 1.649 4.996-.3.666-1.882.866-4.746.599-2.931-.299-4.696-.866-5.295-1.698-.533-.733-.183-2.315 1.049-4.746 1.232-2.531 2.414-3.73 3.547-3.597z" fill="#0d131a"/><path d="m304.71 402.917c-.499 1.133-.599 2.065-.299 2.798.133.4 1.015.716 2.647.949l2.648-.15c.2-.333-.15-1.299-1.049-2.897-.899-1.699-1.682-2.531-2.348-2.498-.566.067-1.099.666-1.599 1.798zm-1.099-1.248c1.033-1.899 1.915-2.848 2.648-2.848 1.232 0 2.531 1.382 3.896 4.146 1.332 2.665 1.799 4.33 1.399 4.996l-4.446.15c-2.731-.333-4.213-.8-4.446-1.399-.499-1.299-.183-2.981.949-5.045z" fill="#0d131a"/><path d="m187.218 412.609c-.566-.666-1.115-.966-1.648-.9-.766.034-1.449.517-2.048 1.449-.6.899-.85 1.765-.75 2.598.1.766.75 1.632 1.948 2.597 1.166.9 1.949 1.266 2.348 1.099.267-.1.55-.582.85-1.448.399-.999.532-1.932.399-2.798-.1-1.032-.466-1.898-1.099-2.597zm-5.195-.65c1.132-1.665 2.364-2.448 3.697-2.348.965.067 1.831.567 2.597 1.499s1.249 2.081 1.449 3.447c.233 1.332.133 2.781-.3 4.346-.433 1.532-.966 2.414-1.598 2.647-.8.3-2.082-.133-3.847-1.298-1.898-1.299-2.981-2.715-3.247-4.246-.2-1.166.217-2.515 1.249-4.047z" fill="#0d131a"/><path d="m177.677 412.509c-.433-.6-.916-.933-1.449-.999-.633-.067-1.299.199-1.998.799-.733.599-1.099 1.249-1.099 1.948.033.866.516 1.898 1.449 3.097.832 1.133 1.448 1.699 1.848 1.699.366-.034.766-.516 1.199-1.449.466-.932.716-1.865.749-2.797.034-.866-.2-1.632-.699-2.298zm-5.145-1.649c1.232-1.099 2.514-1.565 3.846-1.399 1.099.134 2.048.733 2.847 1.799.766 1.066 1.116 2.248 1.05 3.547-.034 1.065-.45 2.431-1.249 4.096-.866 1.732-1.616 2.631-2.248 2.697-.733.1-1.882-.749-3.447-2.547-1.665-1.865-2.531-3.447-2.598-4.746-.066-1.232.533-2.381 1.799-3.447z" fill="#0d131a"/><path d="m196.909 411.51c-.766-1.066-1.465-1.599-2.098-1.599-.633-.067-1.265.4-1.898 1.399-.666 1.032-.916 1.998-.749 2.897.166.799 1.099 1.499 2.797 2.098 1.632.533 2.581.683 2.847.45.234-.2.283-.899.15-2.098-.133-1.299-.483-2.348-1.049-3.147zm-1.748-3.797c1.632.233 2.914 1.948 3.846 5.145.866 2.998 1.033 4.796.5 5.395l-4.696-.299c-2.797-.766-4.313-1.765-4.546-2.998-.266-1.365.117-2.93 1.149-4.695 1.133-1.898 2.381-2.748 3.747-2.548z" fill="#0d131a"/><path d="m160.343 408.562c.832 3.197.916 4.996.25 5.395-.866.5-2.565.4-5.096-.299-2.631-.733-4.096-1.616-4.396-2.648-.399-1.232.067-2.814 1.399-4.746 1.365-1.998 2.731-2.947 4.096-2.847 1.599.1 2.848 1.815 3.747 5.145zm-7.144 1.649c.1.699 1.016 1.332 2.748 1.898 1.665.533 2.681.633 3.047.3.266-.233.117-1.349-.45-3.347-.599-2.132-1.298-3.264-2.098-3.397-.666-.1-1.398.35-2.198 1.349-.899 1.065-1.248 2.131-1.049 3.197z" fill="#0d131a"/><path d="m142.159 410.511c0 .766.916 1.565 2.748 2.397 1.798.8 2.831 1.016 3.097.65.3-.367.217-1.449-.25-3.247-.499-1.932-1.149-2.981-1.948-3.147-.766-.167-1.565.183-2.398 1.049-.766.799-1.182 1.532-1.249 2.198zm-.049-3.947c1.432-1.332 2.697-1.898 3.796-1.698 1.665.299 2.864 2.048 3.597 5.245.699 3.03.716 4.829.05 5.395-.633.599-2.398.266-5.295-.999-3.031-1.266-4.48-2.698-4.346-4.296.099-1.132.832-2.348 2.198-3.647z" fill="#0d131a"/><path d="m228.68 405.115c.1.667 1.066 1.299 2.897 1.899 1.765.566 2.765.699 2.998.399.233-.299.083-1.332-.45-3.097-.566-1.865-1.182-2.831-1.848-2.897-.566-.067-1.332.366-2.298 1.299-.966.965-1.399 1.765-1.299 2.397zm.05-3.346c1.732-1.666 3.097-2.332 4.096-1.999 1.266.467 2.298 2.049 3.097 4.746.766 2.564.9 4.08.4 4.546-.499.433-2.131.283-4.895-.45-2.831-.766-4.413-1.615-4.746-2.547-.4-1.166.283-2.598 2.048-4.296z" fill="#0d131a"/><path d="m222.336 409.112c1.465.499 2.314.633 2.548.399.233-.233.183-1.182-.15-2.847-.367-1.765-.883-2.731-1.549-2.897-.666-.167-1.449.2-2.348 1.099-.899.932-1.265 1.748-1.099 2.447.2.7 1.066 1.299 2.598 1.799zm1.249-7.194c1.099.267 2.015 1.716 2.747 4.346.666 2.565.733 4.247.2 5.046-.333.499-1.815.283-4.446-.65-2.731-.965-4.196-1.981-4.396-3.047-.233-1.065.4-2.348 1.898-3.846 1.532-1.532 2.864-2.148 3.997-1.849z" fill="#0d131a"/><path d="m212.245 409.012c1.466.799 2.348 1.099 2.648.899.266-.166.299-1.132.1-2.897-.233-1.865-.7-2.914-1.399-3.147-.666-.233-1.465 0-2.398.699-.899.666-1.332 1.332-1.299 1.998.034.799.816 1.615 2.348 2.448zm1.898-6.994c1.399.3 2.232 1.949 2.498 4.946.233 2.831.067 4.446-.499 4.845-.633.4-2.198-.066-4.696-1.398-2.531-1.399-3.847-2.615-3.946-3.647-.1-.966.616-2.065 2.148-3.297 1.631-1.266 3.13-1.748 4.495-1.449z" fill="#0d131a"/><path d="m133.517 412.159c1.765.899 2.781 1.182 3.048.849.299-.333.249-1.382-.15-3.147-.433-1.832-.949-2.831-1.549-2.997-.699-.233-1.548.033-2.547.799-1 .766-1.499 1.515-1.499 2.248.033.566.932 1.316 2.697 2.248zm1.799-7.543c1.432.3 2.448 2.048 3.047 5.245.566 3.064.549 4.779-.05 5.145-1.032.7-2.897.333-5.595-1.099-2.664-1.398-4.046-2.647-4.146-3.746-.133-1.266.649-2.581 2.348-3.947 1.665-1.332 3.13-1.864 4.396-1.598z" fill="#0d131a"/><path d="m21.2852 144v-25.594h8.9648c3.1055 0 5.4609.598 7.0664 1.793 1.6055 1.184 2.4082 2.924 2.4082 5.221 0 1.254-.3223 2.361-.9668 3.322-.6445.949-1.541 1.647-2.6894 2.092 1.3125.328 2.3437.99 3.0937 1.986.7617.996 1.1426 2.215 1.1426 3.657 0 2.461-.7852 4.324-2.3555 5.589-1.5703 1.266-3.8086 1.911-6.7148 1.934zm5.2734-11.145v6.909h4.5176c1.2422 0 2.209-.293 2.9004-.879.7031-.598 1.0546-1.418 1.0546-2.461 0-2.344-1.2128-3.533-3.6386-3.569zm0-3.726h3.9023c2.6602-.047 3.9903-1.108 3.9903-3.182 0-1.16-.3399-1.992-1.0196-2.496-.6679-.515-1.7285-.773-3.1816-.773h-3.6914zm28.7754 12.937c-1.2539 1.524-2.9883 2.286-5.2031 2.286-2.0391 0-3.5977-.586-4.6758-1.758-1.0664-1.172-1.6113-2.889-1.6348-5.151v-12.463h5.0801v12.288c0 1.98.9023 2.97 2.707 2.97 1.7227 0 2.9063-.597 3.5508-1.793v-13.465h5.0977v19.02h-4.7813zm14.1152 1.934h-5.0976v-27h5.0976zm21.3399-9.334c0 3.047-.6504 5.426-1.9512 7.137-1.3008 1.699-3.1172 2.549-5.4492 2.549-2.0625 0-3.709-.791-4.9395-2.373l-.2285 2.021h-4.5703v-27h5.0801v9.686c1.1718-1.372 2.7129-2.057 4.623-2.057 2.3203 0 4.1367.855 5.4492 2.566 1.3243 1.7 1.9864 4.096 1.9864 7.19zm-5.0801-.369c0-1.922-.3047-3.322-.9141-4.201-.6094-.891-1.5176-1.336-2.7246-1.336-1.6172 0-2.7305.662-3.3398 1.986v7.506c.6211 1.336 1.7461 2.004 3.375 2.004 1.6406 0 2.7187-.809 3.2343-2.426.2461-.773.3692-1.951.3692-3.533zm19.248 9.703c-.234-.457-.404-1.025-.51-1.705-1.23 1.371-2.83 2.057-4.7986 2.057-1.8632 0-3.4101-.54-4.6406-1.618-1.2187-1.078-1.8281-2.437-1.8281-4.078 0-2.015.7441-3.562 2.2324-4.64 1.5-1.078 3.6621-1.623 6.4859-1.635h2.338v-1.09c0-.879-.228-1.582-.685-2.109-.446-.528-1.155-.791-2.127-.791-.856 0-1.5295.205-2.0217.615-.4804.41-.7207.973-.7207 1.687h-5.08c0-1.101.3398-2.121 1.0195-3.058.6797-.938 1.6406-1.67 2.8828-2.197 1.2422-.54 2.6371-.809 4.1841-.809 2.343 0 4.201.592 5.572 1.775 1.383 1.172 2.074 2.825 2.074 4.957v8.244c.012 1.805.264 3.17.756 4.096v.299zm-4.201-3.533c.75 0 1.441-.164 2.074-.492.633-.34 1.102-.791 1.406-1.354v-3.269h-1.898c-2.5431 0-3.8966.878-4.0607 2.636l-.0175.299c0 .633.2226 1.154.6679 1.565.4453.41 1.0547.615 1.8283.615zm22.781-1.723c0-.621-.31-1.107-.932-1.459-.609-.363-1.593-.685-2.953-.967-4.523-.949-6.785-2.871-6.785-5.765 0-1.688.697-3.094 2.092-4.219 1.406-1.137 3.24-1.705 5.502-1.705 2.414 0 4.342.568 5.783 1.705 1.453 1.137 2.18 2.613 2.18 4.43h-5.08c0-.727-.235-1.325-.703-1.793-.469-.481-1.202-.721-2.198-.721-.855 0-1.517.193-1.986.58s-.703.879-.703 1.477c0 .562.264 1.019.791 1.371.539.34 1.441.638 2.707.896 1.266.246 2.332.528 3.199.844 2.684.984 4.026 2.689 4.026 5.115 0 1.735-.745 3.141-2.233 4.219-1.488 1.066-3.41 1.6-5.765 1.6-1.594 0-3.012-.282-4.254-.844-1.231-.574-2.198-1.354-2.901-2.338-.703-.996-1.054-2.068-1.054-3.217h4.816c.047.902.381 1.594 1.002 2.074.621.481 1.453.721 2.496.721.973 0 1.705-.182 2.197-.545.504-.375.756-.861.756-1.459zm19.248 5.256c-.234-.457-.404-1.025-.51-1.705-1.23 1.371-2.83 2.057-4.798 2.057-1.864 0-3.411-.54-4.641-1.618-1.219-1.078-1.828-2.437-1.828-4.078 0-2.015.744-3.562 2.232-4.64 1.5-1.078 3.662-1.623 6.487-1.635h2.337v-1.09c0-.879-.228-1.582-.685-2.109-.445-.528-1.154-.791-2.127-.791-.856 0-1.529.205-2.022.615-.48.41-.72.973-.72 1.687h-5.08c0-1.101.34-2.121 1.019-3.058.68-.938 1.641-1.67 2.883-2.197 1.242-.54 2.637-.809 4.184-.809 2.343 0 4.201.592 5.572 1.775 1.383 1.172 2.074 2.825 2.074 4.957v8.244c.012 1.805.264 3.17.756 4.096v.299zm-4.201-3.533c.75 0 1.441-.164 2.074-.492.633-.34 1.102-.791 1.406-1.354v-3.269h-1.898c-2.543 0-3.896.878-4.061 2.636l-.017.299c0 .633.223 1.154.668 1.565.445.41 1.055.615 1.828.615zm23.871 1.599c-1.254 1.524-2.988 2.286-5.203 2.286-2.039 0-3.598-.586-4.676-1.758-1.066-1.172-1.611-2.889-1.635-5.151v-12.463h5.08v12.288c0 1.98.903 2.97 2.708 2.97 1.722 0 2.906-.597 3.55-1.793v-13.465h5.098v19.02h-4.781zm19.441-12.322c-.691-.094-1.3-.14-1.828-.14-1.922 0-3.181.65-3.779 1.951v12.445h-5.08v-19.02h4.799l.14 2.268c1.02-1.746 2.432-2.619 4.237-2.619.562 0 1.09.076 1.582.228z" fill="#fff"/><path d="m356.862 140.396h-1.696l-.633 3.604h-1.608l.633-3.604h-1.996v-1.511h2.259l.44-2.496h-2.039v-1.53h2.311l.642-3.656h1.599l-.641 3.656h1.705l.641-3.656h1.609l-.642 3.656h1.925v1.53h-2.197l-.44 2.496h1.969v1.511h-2.232l-.633 3.604h-1.609zm-1.432-1.511h1.696l.439-2.496h-1.705zm15.776-.176c0 1.77-.366 3.123-1.099 4.061-.732.937-1.804 1.406-3.216 1.406-1.395 0-2.461-.46-3.2-1.38-.738-.92-1.116-2.238-1.133-3.955v-2.356c0-1.787.369-3.143 1.107-4.069.744-.926 1.814-1.389 3.208-1.389 1.395 0 2.461.46 3.199 1.38.739.914 1.116 2.23 1.134 3.947zm-2.54-2.584c0-1.061-.146-1.831-.439-2.312-.288-.486-.739-.729-1.354-.729-.598 0-1.04.231-1.327.694-.281.457-.431 1.175-.448 2.154v3.111c0 1.043.14 1.819.422 2.329.287.504.744.756 1.371.756.621 0 1.069-.243 1.344-.73.276-.486.419-1.23.431-2.232zm12.876 2.584c0 1.77-.366 3.123-1.099 4.061-.732.937-1.804 1.406-3.216 1.406-1.395 0-2.461-.46-3.2-1.38-.738-.92-1.116-2.238-1.133-3.955v-2.356c0-1.787.369-3.143 1.107-4.069.744-.926 1.813-1.389 3.208-1.389s2.461.46 3.199 1.38c.738.914 1.116 2.23 1.134 3.947zm-2.54-2.584c0-1.061-.147-1.831-.44-2.312-.287-.486-.738-.729-1.353-.729-.598 0-1.04.231-1.327.694-.281.457-.431 1.175-.448 2.154v3.111c0 1.043.14 1.819.421 2.329.288.504.745.756 1.372.756.621 0 1.069-.243 1.344-.73.276-.486.419-1.23.431-2.232zm10.433 7.875h-2.54v-9.791l-3.033.94v-2.065l5.3-1.898h.273z" fill="#fff"/><g filter="url(#b)"><rect fill="#88ec98" height="29" rx="10" width="96" x="19" y="153"/></g><path d="m57.7637 170.742c-.3692.442-.891.786-1.5655 1.032-.6744.242-1.4218.363-2.2421.363-.8614 0-1.6179-.187-2.2696-.561-.6471-.378-1.1484-.925-1.5039-1.64-.3509-.716-.5309-1.557-.54-2.523v-.677c0-.993.1663-1.852.499-2.577.3372-.729.8203-1.285 1.4492-1.668.6335-.387 1.374-.581 2.2217-.581 1.1803 0 2.1032.283 2.7686.848.6653.56 1.0595 1.378 1.1826 2.454h-1.9961c-.0912-.57-.294-.987-.6084-1.251-.3099-.264-.7383-.397-1.2852-.397-.6972 0-1.2282.262-1.5928.787-.3645.524-.5491 1.303-.5537 2.337v.636c0 1.044.1983 1.832.5948 2.365.3965.534.9775.8 1.7431.8.7702 0 1.3194-.164 1.6475-.492v-1.716h-1.8662v-1.51h3.917zm5.6943-4.286c-.2689-.036-.5059-.055-.7109-.055-.7474 0-1.2373.253-1.4698.759v4.84h-1.9755v-7.396h1.8662l.0547.881c.3964-.679.9456-1.018 1.6474-1.018.2188 0 .4238.029.6153.089zm5.0381 5.544c-.0912-.178-.1572-.399-.1982-.663-.4786.533-1.1006.8-1.8663.8-.7246 0-1.3261-.21-1.8046-.629-.474-.419-.711-.948-.711-1.586 0-.784.2894-1.386.8682-1.805.5833-.419 1.4241-.631 2.5224-.636h.9092v-.423c0-.342-.0888-.616-.2666-.821-.1732-.205-.4489-.307-.8271-.307-.3327 0-.5948.079-.7862.239-.1868.159-.2802.378-.2802.656h-1.9756c0-.428.1321-.825.3965-1.189.2643-.365.638-.65 1.1211-.855.483-.209 1.0253-.314 1.6269-.314.9115 0 1.6338.23 2.167.69.5378.456.8066 1.099.8066 1.928v3.206c.0046.702.1026 1.233.294 1.593v.116zm-1.6338-1.374c.2917 0 .5606-.064.8066-.191.2461-.133.4284-.308.5469-.527v-1.271h-.7383c-.9889 0-1.5153.342-1.5791 1.025l-.0068.116c0 .246.0866.449.2598.609.1731.159.4101.239.7109.239zm8.8594-.67c0-.241-.1208-.431-.3623-.567-.237-.142-.6198-.267-1.1485-.376-1.7591-.369-2.6386-1.117-2.6386-2.242 0-.657.2711-1.204.8134-1.641.5469-.442 1.2601-.663 2.1397-.663.9388 0 1.6885.221 2.249.663.5651.442.8477 1.016.8477 1.723h-1.9756c0-.283-.0912-.515-.2735-.698-.1822-.187-.4671-.28-.8544-.28-.3327 0-.5902.075-.7725.226-.1823.15-.2734.341-.2734.574 0 .219.1025.396.3076.533.2096.132.5605.248 1.0527.349.4922.095.9069.205 1.2441.328 1.0437.383 1.5655 1.046 1.5655 1.989 0 .675-.2894 1.221-.8682 1.641-.5788.414-1.3262.622-2.2422.622-.6198 0-1.1712-.11-1.6543-.328-.4785-.224-.8545-.527-1.1279-.91-.2734-.387-.4102-.804-.4102-1.251h1.8731c.0182.351.1481.62.3896.807.2416.187.5651.28.9707.28.3783 0 .6631-.07.8545-.212.196-.145.294-.335.294-.567zm7.2051 0c0-.241-.1208-.431-.3623-.567-.237-.142-.6198-.267-1.1485-.376-1.7591-.369-2.6387-1.117-2.6387-2.242 0-.657.2712-1.204.8135-1.641.5469-.442 1.2601-.663 2.1397-.663.9388 0 1.6884.221 2.249.663.5651.442.8476 1.016.8476 1.723h-1.9755c0-.283-.0912-.515-.2735-.698-.1823-.187-.4671-.28-.8545-.28-.3326 0-.5901.075-.7724.226-.1823.15-.2735.341-.2735.574 0 .219.1026.396.3077.533.2096.132.5605.248 1.0527.349.4922.095.9069.205 1.2441.328 1.0436.383 1.5655 1.046 1.5655 1.989 0 .675-.2894 1.221-.8682 1.641-.5788.414-1.3262.622-2.2422.622-.6198 0-1.1712-.11-1.6543-.328-.4785-.224-.8545-.527-1.1279-.91-.2735-.387-.4102-.804-.4102-1.251h1.8731c.0182.351.1481.62.3896.807.2416.187.5651.28.9707.28.3783 0 .6631-.07.8545-.212.196-.145.294-.335.294-.567z" fill="#fff"/><g filter="url(#c)"><rect fill="#ae88ec" height="29" rx="10" width="96" x="120" y="153"/></g><path d="m148.939 168.493v3.507h-2.05v-9.953h3.882c.748 0 1.404.137 1.969.41.57.273 1.007.663 1.313 1.169.305.501.458 1.073.458 1.716 0 .975-.335 1.745-1.005 2.31-.666.561-1.588.841-2.769.841zm0-1.661h1.832c.543 0 .955-.128 1.238-.383.287-.255.43-.62.43-1.094 0-.487-.143-.881-.43-1.182s-.684-.456-1.19-.465h-1.88zm6.454 1.401c0-.733.141-1.387.423-1.962.283-.574.689-1.018 1.217-1.333.533-.314 1.151-.471 1.853-.471.998 0 1.811.305 2.44.916.634.61.987 1.44 1.06 2.488l.013.506c0 1.135-.316 2.046-.95 2.734-.633.684-1.483 1.026-2.55 1.026-1.066 0-1.918-.342-2.556-1.026-.634-.683-.95-1.613-.95-2.789zm1.975.144c0 .702.132 1.24.397 1.613.264.369.642.554 1.134.554.479 0 .853-.182 1.122-.547.268-.369.403-.957.403-1.764 0-.688-.135-1.221-.403-1.599-.269-.378-.648-.568-1.135-.568-.483 0-.857.19-1.121.568-.265.373-.397.955-.397 1.743zm8.333 3.623h-1.982v-7.396h1.982zm-2.098-9.311c0-.296.098-.54.293-.731.201-.191.472-.287.814-.287.337 0 .606.096.807.287.2.191.3.435.3.731 0 .301-.102.547-.307.739-.201.191-.467.287-.8.287s-.602-.096-.807-.287c-.2-.192-.3-.438-.3-.739zm7.738 7.267c0-.241-.121-.431-.362-.567-.237-.142-.62-.267-1.149-.376-1.759-.369-2.639-1.117-2.639-2.242 0-.657.272-1.204.814-1.641.547-.442 1.26-.663 2.14-.663.938 0 1.688.221 2.249.663.565.442.847 1.016.847 1.723h-1.975c0-.283-.092-.515-.274-.698-.182-.187-.467-.28-.854-.28-.333 0-.59.075-.773.226-.182.15-.273.341-.273.574 0 .219.102.396.307.533.21.132.561.248 1.053.349.492.095.907.205 1.244.328 1.044.383 1.566 1.046 1.566 1.989 0 .675-.29 1.221-.868 1.641-.579.414-1.327.622-2.243.622-.619 0-1.171-.11-1.654-.328-.478-.224-.854-.527-1.128-.91-.273-.387-.41-.804-.41-1.251h1.873c.018.351.148.62.39.807.241.187.565.28.97.28.379 0 .663-.07.855-.212.196-.145.294-.335.294-.567zm2.891-1.723c0-.733.142-1.387.424-1.962.283-.574.688-1.018 1.217-1.333.533-.314 1.151-.471 1.853-.471.998 0 1.811.305 2.44.916.633.61.987 1.44 1.06 2.488l.013.506c0 1.135-.316 2.046-.95 2.734-.633.684-1.483 1.026-2.55 1.026-1.066 0-1.918-.342-2.556-1.026-.634-.683-.951-1.613-.951-2.789zm1.976.144c0 .702.132 1.24.396 1.613.265.369.643.554 1.135.554.479 0 .852-.182 1.121-.547.269-.369.404-.957.404-1.764 0-.688-.135-1.221-.404-1.599s-.647-.568-1.134-.568c-.483 0-.857.19-1.122.568-.264.373-.396.955-.396 1.743zm8.066-3.773.062.854c.529-.661 1.237-.991 2.126-.991.784 0 1.367.23 1.75.69.383.461.579 1.149.588 2.065v4.778h-1.976v-4.73c0-.42-.091-.723-.273-.91-.183-.191-.486-.287-.909-.287-.556 0-.973.237-1.251.711v5.216h-1.976v-7.396z" fill="#fff"/><rect fill="#fbfbfb" height="66" rx="10" width="376" x="19" y="744"/><rect height="64" rx="9" stroke="#000" stroke-opacity=".23" stroke-width="2" width="374" x="20" y="745"/><path d="m38.3105 786v-19.906h6.5079c2.1601 0 3.7825.446 4.8671 1.34 1.0938.893 1.6407 2.214 1.6407 3.964 0 .93-.2644 1.755-.793 2.475-.5286.711-1.2487 1.262-2.1602 1.654 1.0756.301 1.9232.875 2.543 1.723.6289.839.9434 1.841.9434 3.008 0 1.786-.5788 3.19-1.7364 4.211-1.1575 1.021-2.7936 1.531-4.9082 1.531zm2.625-9.311v7.165h4.334c1.2214 0 2.183-.315 2.8848-.944.7109-.638 1.0664-1.513 1.0664-2.625 0-2.397-1.3034-3.596-3.9102-3.596zm0-2.105h3.9649c1.1484 0 2.0644-.287 2.748-.861.6927-.575 1.0391-1.354 1.0391-2.338 0-1.094-.319-1.887-.957-2.379-.6381-.501-1.6088-.752-2.9121-.752h-3.8829zm23.5567 9.953c-.9844 1.158-2.429 1.736-4.334 1.736-1.5768 0-2.7799-.455-3.6094-1.367-.8203-.92-1.235-2.278-1.2441-4.074v-9.625h2.5293v9.557c0 2.242.9114 3.363 2.7344 3.363 1.9323 0 3.2174-.72 3.8554-2.16v-10.76h2.5293v14.793h-2.4062zm9.0644 1.463h-2.5293v-21h2.5293zm16.584-7.232c0 2.26-.5195 4.078-1.5586 5.455-1.039 1.367-2.4336 2.05-4.1836 2.05-1.8685 0-3.3131-.66-4.3339-1.982l-.1231 1.709h-2.3242v-21h2.5293v7.834c1.0208-1.267 2.429-1.9 4.2246-1.9s3.2038.679 4.2246 2.037c1.03 1.358 1.5449 3.217 1.5449 5.578zm-2.5293-.288c0-1.722-.3327-3.053-.998-3.992-.6654-.939-1.6224-1.408-2.8711-1.408-1.668 0-2.8665.775-3.5957 2.324v6.399c.7747 1.549 1.9824 2.324 3.623 2.324 1.2123 0 2.1556-.469 2.8301-1.408s1.0117-2.352 1.0117-4.239zm14.8617 7.52c-.146-.292-.265-.811-.356-1.559-1.176 1.222-2.5792 1.832-4.2108 1.832-1.4583 0-2.6569-.41-3.5957-1.23-.9296-.829-1.3945-1.878-1.3945-3.145 0-1.54.5833-2.734 1.75-3.582 1.1758-.856 2.8255-1.285 4.9492-1.285h2.4608v-1.162c0-.884-.264-1.586-.793-2.105-.528-.529-1.3077-.793-2.3377-.793-.9023 0-1.6588.228-2.2695.683-.6107.456-.916 1.007-.916 1.655h-2.543c0-.739.2598-1.45.7793-2.133.5286-.693 1.2396-1.24 2.1328-1.641.9023-.401 1.8913-.601 2.9668-.601 1.7043 0 3.0393.428 4.0063 1.285.966.847 1.467 2.019 1.503 3.513v6.809c0 1.358.174 2.438.52 3.24v.219zm-4.1976-1.928c.793 0 1.5449-.205 2.2556-.615.711-.41 1.226-.943 1.545-1.6v-3.035h-1.982c-3.0992 0-4.6487.907-4.6487 2.721 0 .793.2643 1.413.793 1.859.5286.447 1.2077.67 2.0371.67zm18.9086-1.996c0-.683-.26-1.212-.78-1.586-.51-.383-1.408-.711-2.693-.984-1.276-.274-2.292-.602-3.049-.985-.747-.382-1.303-.838-1.668-1.367-.355-.528-.533-1.157-.533-1.886 0-1.213.51-2.238 1.531-3.077 1.03-.838 2.343-1.257 3.938-1.257 1.677 0 3.035.433 4.074 1.298 1.048.866 1.572 1.974 1.572 3.323h-2.543c0-.693-.296-1.29-.888-1.791-.584-.502-1.322-.752-2.215-.752-.921 0-1.641.2-2.16.601-.52.401-.78.925-.78 1.573 0 .61.242 1.071.725 1.38.483.31 1.353.607 2.611.889 1.267.283 2.292.62 3.076 1.012s1.363.866 1.737 1.422c.382.547.574 1.216.574 2.009 0 1.322-.529 2.384-1.586 3.186-1.057.793-2.429 1.189-4.115 1.189-1.185 0-2.233-.209-3.145-.628-.911-.42-1.627-1.003-2.146-1.75-.511-.757-.766-1.573-.766-2.448h2.529c.046.848.383 1.522 1.012 2.024.638.492 1.477.738 2.516.738.957 0 1.722-.191 2.297-.574.583-.392.875-.912.875-1.559zm14.957 3.924c-.146-.292-.265-.811-.356-1.559-1.176 1.222-2.579 1.832-4.211 1.832-1.458 0-2.657-.41-3.595-1.23-.93-.829-1.395-1.878-1.395-3.145 0-1.54.583-2.734 1.75-3.582 1.176-.856 2.826-1.285 4.949-1.285h2.461v-1.162c0-.884-.264-1.586-.793-2.105-.528-.529-1.308-.793-2.338-.793-.902 0-1.659.228-2.269.683-.611.456-.916 1.007-.916 1.655h-2.543c0-.739.26-1.45.779-2.133.529-.693 1.24-1.24 2.133-1.641.902-.401 1.891-.601 2.967-.601 1.704 0 3.039.428 4.006 1.285.966.847 1.467 2.019 1.503 3.513v6.809c0 1.358.174 2.438.52 3.24v.219zm-4.198-1.928c.793 0 1.545-.205 2.256-.615s1.226-.943 1.545-1.6v-3.035h-1.982c-3.099 0-4.649.907-4.649 2.721 0 .793.265 1.413.793 1.859.529.447 1.208.67 2.037.67zm19.428.465c-.984 1.158-2.429 1.736-4.334 1.736-1.577 0-2.78-.455-3.609-1.367-.821-.92-1.235-2.278-1.244-4.074v-9.625h2.529v9.557c0 2.242.911 3.363 2.734 3.363 1.933 0 3.218-.72 3.856-2.16v-10.76h2.529v14.793h-2.406zm13.467-11.06c-.383-.064-.798-.096-1.244-.096-1.659 0-2.785.706-3.377 2.119v10.5h-2.529v-14.793h2.46l.041 1.709c.83-1.322 2.006-1.982 3.528-1.982.492 0 .866.063 1.121.191z" fill="#0d131a"/><rect fill="#d08888" height="66" rx="10" width="376" x="19" y="818"/><rect height="65" rx="9.5" stroke="#000" stroke-opacity=".23" width="375" x="19.5" y="818.5"/><path d="m165.557 856.285c0-.996-.352-1.758-1.055-2.285-.703-.539-1.969-1.102-3.797-1.688-1.828-.597-3.275-1.183-4.342-1.757-2.906-1.571-4.359-3.686-4.359-6.346 0-1.383.387-2.613 1.16-3.691.785-1.09 1.904-1.94 3.357-2.549 1.465-.61 3.106-.914 4.922-.914 1.828 0 3.457.334 4.887 1.002 1.43.656 2.537 1.588 3.322 2.795.797 1.207 1.196 2.578 1.196 4.113h-5.274c0-1.172-.369-2.08-1.107-2.725-.738-.656-1.776-.984-3.112-.984-1.289 0-2.291.275-3.005.826-.715.539-1.073 1.254-1.073 2.145 0 .832.416 1.529 1.248 2.091.844.563 2.08 1.09 3.709 1.582 3 .903 5.186 2.022 6.557 3.358s2.057 3 2.057 4.992c0 2.215-.838 3.955-2.514 5.221-1.676 1.254-3.932 1.881-6.768 1.881-1.968 0-3.761-.358-5.378-1.073-1.618-.726-2.854-1.717-3.709-2.97-.844-1.254-1.266-2.707-1.266-4.36h5.291c0 2.824 1.687 4.237 5.062 4.237 1.254 0 2.233-.252 2.936-.756.703-.516 1.055-1.231 1.055-2.145zm17.297 7.067c-2.79 0-5.063-.856-6.821-2.567-1.746-1.711-2.619-3.99-2.619-6.838v-.492c0-1.91.369-3.615 1.107-5.115.739-1.512 1.782-2.672 3.129-3.481 1.36-.82 2.907-1.23 4.641-1.23 2.602 0 4.647.82 6.135 2.461 1.5 1.64 2.25 3.967 2.25 6.978v2.075h-12.112c.165 1.242.657 2.238 1.477 2.988.832.75 1.881 1.125 3.147 1.125 1.957 0 3.486-.709 4.587-2.127l2.496 2.795c-.761 1.078-1.792 1.922-3.093 2.531-1.301.598-2.742.897-4.324.897zm-.581-15.61c-1.007 0-1.828.34-2.461 1.02-.621.679-1.019 1.652-1.195 2.918h7.067v-.405c-.024-1.125-.329-1.992-.914-2.601-.586-.621-1.418-.932-2.497-.932zm22.325 15.258c-.235-.457-.405-1.025-.51-1.705-1.231 1.371-2.83 2.057-4.799 2.057-1.863 0-3.41-.54-4.641-1.618-1.218-1.078-1.828-2.437-1.828-4.078 0-2.015.744-3.562 2.233-4.64 1.5-1.078 3.662-1.623 6.486-1.635h2.338v-1.09c0-.879-.229-1.582-.686-2.109-.445-.528-1.154-.791-2.127-.791-.855 0-1.529.205-2.021.615-.481.41-.721.973-.721 1.687h-5.08c0-1.101.34-2.121 1.02-3.058.679-.938 1.64-1.67 2.883-2.197 1.242-.54 2.636-.809 4.183-.809 2.344 0 4.201.592 5.572 1.775 1.383 1.172 2.075 2.825 2.075 4.957v8.244c.011 1.805.263 3.17.755 4.096v.299zm-4.202-3.533c.75 0 1.442-.164 2.075-.492.633-.34 1.101-.791 1.406-1.354v-3.269h-1.898c-2.543 0-3.897.878-4.061 2.636l-.018.299c0 .633.223 1.154.668 1.565.446.41 1.055.615 1.828.615zm23.168-10.723c-.691-.094-1.3-.14-1.828-.14-1.922 0-3.181.65-3.779 1.951v12.445h-5.08v-19.02h4.799l.14 2.268c1.02-1.746 2.432-2.619 4.237-2.619.562 0 1.09.076 1.582.228zm10.02 10.512c.937 0 1.699-.258 2.285-.774.586-.515.891-1.201.914-2.056h4.764c-.012 1.289-.363 2.472-1.055 3.551-.691 1.066-1.64 1.898-2.847 2.496-1.196.586-2.52.879-3.973.879-2.719 0-4.863-.862-6.434-2.584-1.57-1.735-2.355-4.125-2.355-7.172v-.334c0-2.93.779-5.268 2.338-7.014 1.558-1.746 3.697-2.619 6.416-2.619 2.379 0 4.283.68 5.713 2.039 1.441 1.348 2.173 3.146 2.197 5.396h-4.764c-.023-.984-.328-1.781-.914-2.39-.586-.621-1.359-.932-2.32-.932-1.184 0-2.08.434-2.69 1.301-.597.855-.896 2.25-.896 4.184v.527c0 1.957.299 3.363.896 4.219.598.855 1.506 1.283 2.725 1.283zm15.82-13.201c1.348-1.617 3.041-2.426 5.08-2.426 4.125 0 6.217 2.396 6.276 7.189v12.182h-5.08v-12.041c0-1.09-.235-1.893-.703-2.408-.469-.528-1.248-.791-2.338-.791-1.489 0-2.567.574-3.235 1.722v13.518h-5.08v-27h5.08z" fill="#fff"/></g></svg>